<?xml version="1.0" encoding="UTF-8"?>
<!DOCTYPE svg PUBLIC "-//W3C//DTD SVG 1.1//EN" "http://www.w3.org/Graphics/SVG/1.1/DTD/svg11.dtd">
<svg xmlns="http://www.w3.org/2000/svg" version="1.1" width="631px" height="631px" style="shape-rendering:geometricPrecision; text-rendering:geometricPrecision; image-rendering:optimizeQuality; fill-rule:evenodd; clip-rule:evenodd" xmlns:xlink="http://www.w3.org/1999/xlink">
<g><path style="opacity:0.004" fill="#000000" d="M -0.5,-0.5 C 5.16667,-0.5 10.8333,-0.5 16.5,-0.5C 8.5,2.83333 2.83333,8.5 -0.5,16.5C -0.5,10.8333 -0.5,5.16667 -0.5,-0.5 Z"/></g>
<g><path style="opacity:0.004" fill="#000000" d="M 613.5,-0.5 C 619.167,-0.5 624.833,-0.5 630.5,-0.5C 630.5,5.16667 630.5,10.8333 630.5,16.5C 627.167,8.5 621.5,2.83333 613.5,-0.5 Z"/></g>
<g><path style="opacity:1" fill="#ee962c" d="M 16.5,-0.5 C 215.5,-0.5 414.5,-0.5 613.5,-0.5C 621.5,2.83333 627.167,8.5 630.5,16.5C 630.5,215.5 630.5,414.5 630.5,613.5C 627.167,621.5 621.5,627.167 613.5,630.5C 555.833,630.5 498.167,630.5 440.5,630.5C 437.071,604.259 432.237,578.259 426,552.5C 423.574,543.141 418.741,535.308 411.5,529C 396.317,523.272 380.984,517.939 365.5,513C 362.885,508.717 359.885,504.717 356.5,501C 353.929,499.546 351.262,498.38 348.5,497.5C 347.811,496.226 346.977,496.226 346,497.5C 342.619,492.73 339.786,487.73 337.5,482.5C 335.14,475.029 333.806,467.362 333.5,459.5C 333.601,456.3 334.268,453.3 335.5,450.5C 338.068,449.132 340.401,449.466 342.5,451.5C 357.581,450.27 372.915,450.27 388.5,451.5C 403.198,452.371 417.532,450.538 431.5,446C 439.316,443.526 442.316,438.359 440.5,430.5C 440.855,429.478 441.522,428.811 442.5,428.5C 444.022,427.809 445.022,426.642 445.5,425C 444.167,423 442.833,421 441.5,419C 447.125,407.853 448.959,396.019 447,383.5C 443.23,367.489 437.563,352.489 430,338.5C 429.675,330.654 429.175,322.821 428.5,315C 428.833,313.5 429.167,312 429.5,310.5C 434.562,308.262 439.228,305.429 443.5,302C 451.566,293.264 460.233,285.264 469.5,278C 485.293,261.954 491.46,242.787 488,220.5C 486.476,215.118 484.142,210.118 481,205.5C 478.293,203.064 475.127,201.564 471.5,201C 456.726,198.476 444.226,202.643 434,213.5C 435.757,204.551 437.59,195.551 439.5,186.5C 438.079,183.991 436.412,181.657 434.5,179.5C 441.607,164.954 448.44,150.287 455,135.5C 456.042,132.196 454.875,130.029 451.5,129C 440.298,126.126 428.965,123.96 417.5,122.5C 397.053,89.2807 367.387,75.4474 328.5,81C 296.126,82.9402 268.293,95.1069 245,117.5C 237.798,127.069 232.298,137.569 228.5,149C 218.723,152.389 209.056,156.056 199.5,160C 193.109,162.731 191.943,166.898 196,172.5C 199.308,177.308 202.808,181.975 206.5,186.5C 200.602,186.102 194.602,186.602 188.5,188C 182.466,191.028 177.299,195.195 173,200.5C 164.899,215.367 157.899,230.7 152,246.5C 152.68,266.374 158.847,284.374 170.5,300.5C 164.349,304.822 159.849,310.488 157,317.5C 156.333,320.833 156.333,324.167 157,327.5C 157.417,328.756 158.25,329.423 159.5,329.5C 160.134,330.947 161.301,331.613 163,331.5C 166.767,330.579 170.267,329.079 173.5,327C 178.164,322.192 182.164,317.025 185.5,311.5C 188.145,312.108 190.812,312.608 193.5,313C 206.167,313.667 218.833,313.667 231.5,313C 235.984,312.429 239.818,310.596 243,307.5C 238.193,335.679 234.027,364.013 230.5,392.5C 231.167,395.167 231.833,395.167 232.5,392.5C 234.48,386.927 236.313,381.26 238,375.5C 239.54,381.12 240.874,386.787 242,392.5C 242.496,416.607 241.162,440.607 238,464.5C 235.177,474.475 231.011,483.808 225.5,492.5C 222.783,492.974 220.45,493.974 218.5,495.5C 216.447,500.055 213.447,503.889 209.5,507C 190.478,515.119 171.145,522.452 151.5,529C 144.735,533.101 138.569,537.934 133,543.5C 115.103,570.005 102.936,599.005 96.5,630.5C 69.8333,630.5 43.1667,630.5 16.5,630.5C 8.5,627.167 2.83333,621.5 -0.5,613.5C -0.5,414.5 -0.5,215.5 -0.5,16.5C 2.83333,8.5 8.5,2.83333 16.5,-0.5 Z"/></g>
<g><path style="opacity:0.998" fill="#191612" d="M 442.5,428.5 C 442.5,427.833 442.167,427.5 441.5,427.5C 444.264,424.604 443.597,422.438 439.5,421C 427.337,421.598 415.337,423.431 403.5,426.5C 403.5,425.833 403.167,425.5 402.5,425.5C 403.568,424.566 404.901,424.232 406.5,424.5C 406.737,423.209 406.404,422.209 405.5,421.5C 404.516,403.554 399.516,386.888 390.5,371.5C 390.393,369.621 390.893,369.288 392,370.5C 399.933,385.3 405.267,400.967 408,417.5C 407.701,404.301 404.868,391.634 399.5,379.5C 399.97,378.537 400.637,378.537 401.5,379.5C 406.712,393.353 409.879,407.686 411,422.5C 411.828,413.19 412.328,413.19 412.5,422.5C 413.5,422.5 414.5,422.5 415.5,422.5C 415.5,421.5 415.5,420.5 415.5,419.5C 416.552,420.53 417.886,421.197 419.5,421.5C 424.847,420.496 430.181,419.496 435.5,418.5C 435.35,410.791 436.35,410.791 438.5,418.5C 439.192,417.975 439.692,417.308 440,416.5C 440.499,412.848 440.665,409.182 440.5,405.5C 441.931,405.881 442.764,406.881 443,408.5C 445.48,400.81 445.98,393.143 444.5,385.5C 444.578,378.408 442.244,372.408 437.5,367.5C 437.667,367.167 437.833,366.833 438,366.5C 438.915,367.328 439.581,368.328 440,369.5C 437.545,357.918 432.878,347.251 426,337.5C 425.262,333.89 424.095,330.557 422.5,327.5C 419.106,319.045 415.439,310.712 411.5,302.5C 410.545,300.254 409.878,297.921 409.5,295.5C 404.292,295.063 399.625,293.23 395.5,290C 396.793,289.51 398.127,289.343 399.5,289.5C 406.692,290.055 413.692,289.222 420.5,287C 427.285,280.108 426.952,273.441 419.5,267C 413.551,263.91 407.218,262.41 400.5,262.5C 394.681,261.347 388.681,261.181 382.5,262C 383.771,267.802 383.771,273.636 382.5,279.5C 378.603,292.177 377.436,305.177 379,318.5C 380.014,324.218 381.18,329.885 382.5,335.5C 386.108,345.323 390.108,354.99 394.5,364.5C 382.589,346.211 376.423,325.544 376,302.5C 375.768,303.737 375.268,304.737 374.5,305.5C 374.425,301.103 374.925,296.77 376,292.5C 380.749,282.093 381.582,271.427 378.5,260.5C 377.614,261.325 377.281,262.325 377.5,263.5C 377.768,265.099 377.434,266.432 376.5,267.5C 377.092,264.359 376.092,262.026 373.5,260.5C 353.853,262.798 334.187,264.965 314.5,267C 304.944,268.545 300.111,274.045 300,283.5C 301.892,287.058 304.725,289.558 308.5,291C 321.606,294.24 334.606,293.74 347.5,289.5C 349.906,289.81 349.906,290.477 347.5,291.5C 338.852,294.887 330.185,298.387 321.5,302C 320.695,303.113 320.028,304.279 319.5,305.5C 314.568,313.699 309.901,322.032 305.5,330.5C 302.608,334.602 299.941,338.935 297.5,343.5C 298.025,344.192 298.692,344.692 299.5,345C 298.378,347.124 296.878,348.957 295,350.5C 294.667,350.167 294.333,349.833 294,349.5C 292.723,351.747 291.223,353.747 289.5,355.5C 289.5,354.833 289.167,354.5 288.5,354.5C 297.5,339.167 306.5,323.833 315.5,308.5C 317.474,305.23 319.474,301.897 321.5,298.5C 314.79,296.643 308.457,293.976 302.5,290.5C 298.944,287.719 297.277,284.052 297.5,279.5C 298.295,276.577 299.628,273.91 301.5,271.5C 277.233,269.559 267.233,256.559 271.5,232.5C 278.944,216.869 289.944,204.036 304.5,194C 308.048,192.059 311.714,190.393 315.5,189C 295.069,192.442 275.069,197.775 255.5,205C 249.639,207.18 244.139,210.013 239,213.5C 238.333,216.167 238.333,218.833 239,221.5C 243.002,242.843 245.502,264.343 246.5,286C 246.333,291.833 246.167,297.667 246,303.5C 242.102,327.491 238.268,351.491 234.5,375.5C 234.667,376.833 234.833,378.167 235,379.5C 237.421,370.043 240.087,360.71 243,351.5C 242.508,355.483 241.674,359.483 240.5,363.5C 241.359,368.243 242.526,372.91 244,377.5C 248,386.833 252,396.167 256,405.5C 257.885,410.039 260.052,413.705 262.5,416.5C 263.686,417.705 263.686,419.039 262.5,420.5C 257.496,412.7 253.329,404.367 250,395.5C 249.667,399.5 249.333,403.5 249,407.5C 248.066,406.142 247.232,404.808 246.5,403.5C 246.291,402.078 245.791,400.745 245,399.5C 244.369,418.187 243.369,436.853 242,455.5C 238.532,474.094 231.032,490.761 219.5,505.5C 221.109,508.777 223.442,511.444 226.5,513.5C 226.866,514.695 227.699,515.361 229,515.5C 231.795,514.422 234.629,513.922 237.5,514C 235.365,515.381 233.032,516.381 230.5,517C 232.193,517.847 233.86,518.68 235.5,519.5C 250.257,525.954 265.757,528.954 282,528.5C 303.123,529.398 323.29,525.731 342.5,517.5C 343.833,516.833 344.833,515.833 345.5,514.5C 348.486,513.514 350.486,511.514 351.5,508.5C 345.05,501.936 340.383,494.269 337.5,485.5C 337.5,484.5 337.5,483.5 337.5,482.5C 339.786,487.73 342.619,492.73 346,497.5C 346.977,496.226 347.811,496.226 348.5,497.5C 347.833,497.5 347.5,497.833 347.5,498.5C 347.062,498.435 346.728,498.601 346.5,499C 348.47,501.316 350.804,503.149 353.5,504.5C 354.614,505.723 354.781,507.056 354,508.5C 349.71,515.08 343.877,519.913 336.5,523C 309.567,530.629 282.234,532.296 254.5,528C 245.873,525.791 237.54,522.791 229.5,519C 225.033,515.535 220.867,511.702 217,507.5C 217.184,502.64 219.351,498.807 223.5,496C 222.552,495.517 221.552,495.351 220.5,495.5C 219.833,495.5 219.167,495.5 218.5,495.5C 220.45,493.974 222.783,492.974 225.5,492.5C 231.011,483.808 235.177,474.475 238,464.5C 241.162,440.607 242.496,416.607 242,392.5C 240.874,386.787 239.54,381.12 238,375.5C 236.313,381.26 234.48,386.927 232.5,392.5C 231.833,395.167 231.167,395.167 230.5,392.5C 234.027,364.013 238.193,335.679 243,307.5C 239.818,310.596 235.984,312.429 231.5,313C 218.833,313.667 206.167,313.667 193.5,313C 190.812,312.608 188.145,312.108 185.5,311.5C 182.164,317.025 178.164,322.192 173.5,327C 170.267,329.079 166.767,330.579 163,331.5C 161.301,331.613 160.134,330.947 159.5,329.5C 158.25,329.423 157.417,328.756 157,327.5C 156.333,324.167 156.333,320.833 157,317.5C 159.849,310.488 164.349,304.822 170.5,300.5C 158.847,284.374 152.68,266.374 152,246.5C 157.899,230.7 164.899,215.367 173,200.5C 177.299,195.195 182.466,191.028 188.5,188C 194.602,186.602 200.602,186.102 206.5,186.5C 202.808,181.975 199.308,177.308 196,172.5C 191.943,166.898 193.109,162.731 199.5,160C 209.056,156.056 218.723,152.389 228.5,149C 232.298,137.569 237.798,127.069 245,117.5C 268.293,95.1069 296.126,82.9402 328.5,81C 367.387,75.4474 397.053,89.2807 417.5,122.5C 428.965,123.96 440.298,126.126 451.5,129C 454.875,130.029 456.042,132.196 455,135.5C 448.44,150.287 441.607,164.954 434.5,179.5C 436.412,181.657 438.079,183.991 439.5,186.5C 437.59,195.551 435.757,204.551 434,213.5C 444.226,202.643 456.726,198.476 471.5,201C 475.127,201.564 478.293,203.064 481,205.5C 484.142,210.118 486.476,215.118 488,220.5C 491.46,242.787 485.293,261.954 469.5,278C 460.233,285.264 451.566,293.264 443.5,302C 439.228,305.429 434.562,308.262 429.5,310.5C 429.167,312 428.833,313.5 428.5,315C 429.175,322.821 429.675,330.654 430,338.5C 437.563,352.489 443.23,367.489 447,383.5C 448.959,396.019 447.125,407.853 441.5,419C 442.833,421 444.167,423 445.5,425C 445.022,426.642 444.022,427.809 442.5,428.5 Z"/></g>
<g><path style="opacity:1" fill="#f4f2c6" d="M 271.5,232.5 C 266.828,241.528 265.328,251.195 267,261.5C 271.169,277.668 281.336,283.668 297.5,279.5C 297.277,284.052 298.944,287.719 302.5,290.5C 304.889,297.961 309.223,303.961 315.5,308.5C 306.5,323.833 297.5,339.167 288.5,354.5C 283.174,363.625 278.507,373.125 274.5,383C 275.167,383.333 275.833,383.667 276.5,384C 275.606,387.414 274.939,390.914 274.5,394.5C 275.522,400.143 275.689,405.81 275,411.5C 269.423,399.777 264.423,387.777 260,375.5C 260.616,389.146 261.45,402.812 262.5,416.5C 260.052,413.705 257.885,410.039 256,405.5C 252,396.167 248,386.833 244,377.5C 242.526,372.91 241.359,368.243 240.5,363.5C 241.674,359.483 242.508,355.483 243,351.5C 240.087,360.71 237.421,370.043 235,379.5C 234.833,378.167 234.667,376.833 234.5,375.5C 238.268,351.491 242.102,327.491 246,303.5C 246.167,297.667 246.333,291.833 246.5,286C 245.502,264.343 243.002,242.843 239,221.5C 238.333,218.833 238.333,216.167 239,213.5C 244.139,210.013 249.639,207.18 255.5,205C 275.069,197.775 295.069,192.442 315.5,189C 311.714,190.393 308.048,192.059 304.5,194C 289.944,204.036 278.944,216.869 271.5,232.5 Z"/></g>
<g><path style="opacity:1" fill="#dec49e" d="M 291.5,244.5 C 297.842,256.351 307.842,262.685 321.5,263.5C 315.987,263.892 310.653,265.392 305.5,268C 280.807,269.636 270.307,258.136 274,233.5C 276.305,226.887 279.638,220.887 284,215.5C 293.551,204.271 305.051,195.771 318.5,190C 325.11,188.559 331.776,188.226 338.5,189C 351.61,191.029 364.61,193.529 377.5,196.5C 377.536,219.062 378.203,219.062 379.5,196.5C 380.5,196.5 381.5,196.5 382.5,196.5C 383.496,201.463 383.663,206.463 383,211.5C 379.155,223.892 376.655,236.558 375.5,249.5C 370.633,247.351 365.633,246.851 360.5,248C 362.329,246.887 363.163,245.387 363,243.5C 360.697,246.233 357.863,247.733 354.5,248C 358.062,244.942 361.062,241.442 363.5,237.5C 361.005,235.851 359.505,233.517 359,230.5C 357.402,223.847 356.902,217.18 357.5,210.5C 359.098,211.485 360.765,211.651 362.5,211C 360.112,209.139 357.446,207.806 354.5,207C 342.4,204.895 331.067,206.895 320.5,213C 307.525,221.113 297.858,231.613 291.5,244.5 Z"/></g>
<g><path style="opacity:1" fill="#a2a184" d="M 192.5,189.5 C 201.646,187.287 210.313,188.787 218.5,194C 224.244,199.073 229.244,204.74 233.5,211C 232.718,213.74 232.218,216.574 232,219.5C 228.367,211.037 222.533,204.704 214.5,200.5C 215.167,200.5 215.5,200.167 215.5,199.5C 219.599,201.308 223.099,203.975 226,207.5C 225.454,204.907 223.954,202.74 221.5,201C 218.09,198.628 214.423,196.795 210.5,195.5C 205.744,190.138 199.744,188.138 192.5,189.5 Z"/></g>
<g><path style="opacity:1" fill="#edebc0" d="M 192.5,189.5 C 199.744,188.138 205.744,190.138 210.5,195.5C 198.534,193.544 188.367,196.878 180,205.5C 179.333,206.167 179.333,206.833 180,207.5C 190.068,196.637 201.902,193.97 215.5,199.5C 215.5,200.167 215.167,200.5 214.5,200.5C 205.078,198.022 196.411,199.522 188.5,205C 183.053,209.146 177.886,213.646 173,218.5C 172.333,219.167 172.333,219.833 173,220.5C 182.609,210.8 183.609,211.467 176,222.5C 167.615,244.533 168.948,265.866 180,286.5C 196.099,304.81 215.265,308.644 237.5,298C 238.667,296.833 239.833,295.667 241,294.5C 240.435,297.404 239.935,300.404 239.5,303.5C 233.134,306.259 226.467,308.093 219.5,309C 226.473,309.621 233.14,308.454 239.5,305.5C 238.766,306.708 238.433,308.041 238.5,309.5C 221.232,311.998 203.898,312.164 186.5,310C 183.48,308.3 180.48,306.634 177.5,305C 180.215,304.125 181.548,302.292 181.5,299.5C 178.102,299.82 174.768,299.487 171.5,298.5C 161.267,283.975 155.267,267.809 153.5,250C 158.732,234.36 165.232,219.193 173,204.5C 177.668,196.985 184.168,191.985 192.5,189.5 Z"/></g>
<g><path style="opacity:1" fill="#ddc29d" d="M 403.5,260.5 C 403.389,259.883 403.056,259.383 402.5,259C 410.725,256.942 415.725,251.776 417.5,243.5C 417.869,241.559 418.536,239.725 419.5,238C 416.768,237.602 414.935,236.102 414,233.5C 410.738,227.217 409.238,220.55 409.5,213.5C 413.695,213.681 417.195,215.347 420,218.5C 419.394,215.54 417.561,213.373 414.5,212C 402.589,209.526 392.422,212.692 384,221.5C 384.953,216.473 385.453,211.306 385.5,206C 385.481,202.582 385.147,199.249 384.5,196C 393.422,191.871 402.089,187.205 410.5,182C 416.659,180.161 420.492,182.328 422,188.5C 424.145,207.251 423.478,225.917 420,244.5C 417.873,250.584 414.373,255.751 409.5,260C 407.527,260.495 405.527,260.662 403.5,260.5 Z"/></g>
<g><path style="opacity:1" fill="#edebc1" d="M 421.5,181.5 C 425.514,181.334 429.514,181.501 433.5,182C 435.974,184.041 436.974,186.708 436.5,190C 433.043,206.327 428.876,222.494 424,238.5C 424.263,228.69 424.763,218.856 425.5,209C 425.455,199.586 424.122,190.42 421.5,181.5 Z"/></g>
<g><path style="opacity:1" fill="#eceac0" d="M 376.5,181.5 C 386.015,181.173 395.348,181.506 404.5,182.5C 399.359,185.907 394.026,189.074 388.5,192C 384.922,193.037 381.256,193.537 377.5,193.5C 367.483,192.006 357.483,190.172 347.5,188C 340.533,187.002 333.533,186.336 326.5,186C 343.034,182.98 359.701,181.48 376.5,181.5 Z"/></g>
<g><path style="opacity:0.839" fill="#b5b393" d="M 376.5,181.5 C 386.658,180.341 396.992,180.175 407.5,181C 406.473,181.513 405.473,182.013 404.5,182.5C 395.348,181.506 386.015,181.173 376.5,181.5 Z"/></g>
<g><path style="opacity:1" fill="#9e9e9e" d="M 437.5,169.5 C 437.068,170.71 436.401,171.71 435.5,172.5C 431.979,171.834 428.313,171.167 424.5,170.5C 428.783,169.508 433.116,169.174 437.5,169.5 Z"/></g>
<g><path style="opacity:1" fill="#9a9a9a" d="M 378.5,175.5 C 380.167,176.833 381.833,176.833 383.5,175.5C 391.511,176.398 399.511,177.398 407.5,178.5C 380.041,178.508 352.708,180.341 325.5,184C 305.734,188.525 286.067,193.525 266.5,199C 256.463,202.291 246.796,206.457 237.5,211.5C 232.049,204.877 226.382,198.377 220.5,192C 215.799,190.773 211.632,188.606 208,185.5C 203.456,179.576 199.289,173.409 195.5,167C 197.458,163.499 200.458,161.166 204.5,160C 214.076,156.197 223.742,152.697 233.5,149.5C 233.917,150.124 234.584,150.457 235.5,150.5C 239.703,148.703 244.036,147.87 248.5,148C 247.929,149.205 247.262,150.372 246.5,151.5C 241.667,154.281 236.667,156.781 231.5,159C 232,159.167 232.5,159.333 233,159.5C 249.114,153.346 265.614,148.846 282.5,146C 271.897,149.868 261.23,153.534 250.5,157C 246.539,160.988 241.872,163.988 236.5,166C 252.39,161.692 268.39,157.358 284.5,153C 286.5,152.333 288.5,152.333 290.5,153C 276.483,156.672 262.816,161.339 249.5,167C 249.708,171.56 247.708,174.56 243.5,176C 242.112,176.889 242.278,177.389 244,177.5C 259.263,170.633 275.096,165.8 291.5,163C 277.087,168.036 262.754,173.37 248.5,179C 248.023,181.899 247.023,184.566 245.5,187C 260.361,182.159 275.361,177.493 290.5,173C 294.152,172.111 297.818,171.778 301.5,172C 283.535,177.482 265.868,183.815 248.5,191C 247.833,193 247.167,195 246.5,197C 247,197.167 247.5,197.333 248,197.5C 255.548,193.983 263.382,191.483 271.5,190C 264.281,193.187 256.948,196.187 249.5,199C 248.235,200.337 247.735,201.837 248,203.5C 290.245,187.223 333.745,177.889 378.5,175.5 Z"/></g>
<g><path style="opacity:1" fill="#999999" d="M 266.5,119.5 C 265.496,125.187 264.329,130.853 263,136.5C 262.764,138.119 261.931,139.119 260.5,139.5C 261.876,132.6 263.876,125.933 266.5,119.5 Z"/></g>
<g><path style="opacity:1" fill="#fbfbfb" d="M 437.5,169.5 C 433.116,169.174 428.783,169.508 424.5,170.5C 428.313,171.167 431.979,171.834 435.5,172.5C 434.914,174.84 433.914,177.007 432.5,179C 424.188,178.816 415.855,178.649 407.5,178.5C 399.511,177.398 391.511,176.398 383.5,175.5C 386.949,172.227 390.616,169.061 394.5,166C 396.351,165.163 398.184,164.329 400,163.5C 401.306,160.388 402.472,157.221 403.5,154C 403.167,153.5 402.833,153 402.5,152.5C 399.5,154 396.5,155.5 393.5,157C 392.436,160.064 390.603,162.564 388,164.5C 386.294,157.668 387.794,151.835 392.5,147C 393.448,146.517 394.448,146.351 395.5,146.5C 395.433,144.599 395.767,142.766 396.5,141C 394.672,139.337 393.005,137.504 391.5,135.5C 393.894,130.368 392.394,127.368 387,126.5C 381.974,127.871 379.64,131.204 380,136.5C 378.622,138.213 376.955,139.547 375,140.5C 374.505,142.473 374.338,144.473 374.5,146.5C 376.664,146.721 378.33,147.721 379.5,149.5C 378.734,154.339 377.734,159.006 376.5,163.5C 375.132,161.436 374.132,159.102 373.5,156.5C 370.833,155.167 368.167,153.833 365.5,152.5C 364.893,152.624 364.56,152.957 364.5,153.5C 363.098,157.29 363.431,160.956 365.5,164.5C 370.042,167.915 374.375,171.581 378.5,175.5C 333.745,177.889 290.245,187.223 248,203.5C 247.735,201.837 248.235,200.337 249.5,199C 256.948,196.187 264.281,193.187 271.5,190C 263.382,191.483 255.548,193.983 248,197.5C 247.5,197.333 247,197.167 246.5,197C 247.167,195 247.833,193 248.5,191C 265.868,183.815 283.535,177.482 301.5,172C 297.818,171.778 294.152,172.111 290.5,173C 275.361,177.493 260.361,182.159 245.5,187C 247.023,184.566 248.023,181.899 248.5,179C 262.754,173.37 277.087,168.036 291.5,163C 275.096,165.8 259.263,170.633 244,177.5C 242.278,177.389 242.112,176.889 243.5,176C 247.708,174.56 249.708,171.56 249.5,167C 262.816,161.339 276.483,156.672 290.5,153C 288.5,152.333 286.5,152.333 284.5,153C 268.39,157.358 252.39,161.692 236.5,166C 241.872,163.988 246.539,160.988 250.5,157C 261.23,153.534 271.897,149.868 282.5,146C 265.614,148.846 249.114,153.346 233,159.5C 232.5,159.333 232,159.167 231.5,159C 236.667,156.781 241.667,154.281 246.5,151.5C 247.262,150.372 247.929,149.205 248.5,148C 244.036,147.87 239.703,148.703 235.5,150.5C 234.584,150.457 233.917,150.124 233.5,149.5C 293.987,132.65 355.653,124.484 418.5,125C 425.855,125.869 433.188,126.869 440.5,128C 445.029,128.668 449.196,130.168 453,132.5C 453.667,133.5 453.667,134.5 453,135.5C 447.531,146.766 442.364,158.1 437.5,169.5 Z"/></g>
<g><path style="opacity:1" fill="#898989" d="M 365.5,164.5 C 366.873,164.343 368.207,164.51 369.5,165C 373.107,168.098 376.107,171.598 378.5,175.5C 374.375,171.581 370.042,167.915 365.5,164.5 Z"/></g>
<g><path style="opacity:1" fill="#929292" d="M 364.5,153.5 C 364.942,157.154 365.276,160.821 365.5,164.5C 363.431,160.956 363.098,157.29 364.5,153.5 Z"/></g>
<g><path style="opacity:1" fill="#a5a5a5" d="M 379.5,149.5 C 380.124,149.917 380.457,150.584 380.5,151.5C 379.82,155.916 378.82,160.25 377.5,164.5C 376.893,164.376 376.56,164.043 376.5,163.5C 377.734,159.006 378.734,154.339 379.5,149.5 Z"/></g>
<g><path style="opacity:1" fill="#13141a" d="M 383.5,175.5 C 381.833,176.833 380.167,176.833 378.5,175.5C 376.107,171.598 373.107,168.098 369.5,165C 368.207,164.51 366.873,164.343 365.5,164.5C 365.276,160.821 364.942,157.154 364.5,153.5C 364.56,152.957 364.893,152.624 365.5,152.5C 368.167,153.833 370.833,155.167 373.5,156.5C 374.132,159.102 375.132,161.436 376.5,163.5C 376.56,164.043 376.893,164.376 377.5,164.5C 378.82,160.25 379.82,155.916 380.5,151.5C 380.457,150.584 380.124,149.917 379.5,149.5C 378.33,147.721 376.664,146.721 374.5,146.5C 374.338,144.473 374.505,142.473 375,140.5C 376.955,139.547 378.622,138.213 380,136.5C 379.64,131.204 381.974,127.871 387,126.5C 392.394,127.368 393.894,130.368 391.5,135.5C 393.005,137.504 394.672,139.337 396.5,141C 395.767,142.766 395.433,144.599 395.5,146.5C 394.448,146.351 393.448,146.517 392.5,147C 387.794,151.835 386.294,157.668 388,164.5C 390.603,162.564 392.436,160.064 393.5,157C 396.5,155.5 399.5,154 402.5,152.5C 402.833,153 403.167,153.5 403.5,154C 402.472,157.221 401.306,160.388 400,163.5C 398.184,164.329 396.351,165.163 394.5,166C 390.616,169.061 386.949,172.227 383.5,175.5 Z"/></g>
<g><path style="opacity:1" fill="#3265c9" d="M 385.5,128.5 C 388.532,128.178 390.199,129.511 390.5,132.5C 390.321,135.191 389.321,137.525 387.5,139.5C 387.833,139.833 388.167,140.167 388.5,140.5C 391.062,137.819 393.062,138.319 394.5,142C 393.044,143.797 391.544,145.631 390,147.5C 389.167,146.5 388.333,145.5 387.5,144.5C 386.133,151.513 385.3,158.513 385,165.5C 386.388,166.554 387.888,166.72 389.5,166C 392.299,163.877 394.299,161.21 395.5,158C 402.261,154.052 403.261,155.218 398.5,161.5C 392.555,165.442 386.888,169.775 381.5,174.5C 377.671,169.323 373.004,165.323 367.5,162.5C 367.201,160.396 367.534,158.396 368.5,156.5C 369.748,157.04 370.915,157.707 372,158.5C 372.229,161.458 373.396,163.958 375.5,166C 377.112,166.72 378.612,166.554 380,165.5C 380.845,158.762 382.012,152.096 383.5,145.5C 383.167,145.167 382.833,144.833 382.5,144.5C 380.148,146.78 378.148,146.28 376.5,143C 377.978,141.522 379.478,140.022 381,138.5C 381.667,139.167 382.333,139.833 383,140.5C 382.872,137.514 382.872,134.514 383,131.5C 384.045,130.627 384.878,129.627 385.5,128.5 Z"/></g>
<g><path style="opacity:1" fill="#1b1b1d" d="M 385.5,130.5 C 386.833,130.5 388.167,130.5 389.5,130.5C 390.167,134.5 388.5,136.167 384.5,135.5C 384.366,133.708 384.699,132.042 385.5,130.5 Z"/></g>
<g><path style="opacity:1" fill="#969696" d="M 252.5,113.5 C 248.664,118.68 246.331,124.513 245.5,131C 245.329,134.129 246.162,136.963 248,139.5C 249.444,141.155 251.278,141.822 253.5,141.5C 246.967,143.494 240.3,145.494 233.5,147.5C 233.167,146.833 232.833,146.167 232.5,145.5C 236.148,132.854 242.815,122.187 252.5,113.5 Z"/></g>
<g><path style="opacity:1" fill="#f8f8f8" d="M 266.5,119.5 C 263.876,125.933 261.876,132.6 260.5,139.5C 258.401,140.612 256.067,141.279 253.5,141.5C 251.278,141.822 249.444,141.155 248,139.5C 246.162,136.963 245.329,134.129 245.5,131C 246.331,124.513 248.664,118.68 252.5,113.5C 262.174,106.235 272.341,99.5688 283,93.5C 283.667,94.1667 283.667,94.8333 283,95.5C 275.709,102.463 270.209,110.463 266.5,119.5 Z"/></g>
<g><path style="opacity:1" fill="#fcfcfc" d="M 353.5,101.5 C 355.02,106.893 356.854,112.226 359,117.5C 359.497,119.81 359.663,122.143 359.5,124.5C 327.914,127.146 296.581,132.146 265.5,139.5C 266.49,117.686 276.157,100.853 294.5,89C 315.109,83.2172 336.109,81.2172 357.5,83C 382.269,87.2647 401.269,100.098 414.5,121.5C 398.245,122.065 382.079,123.065 366,124.5C 361.931,112.361 356.264,101.028 349,90.5C 348.282,89.5494 347.449,89.3828 346.5,90C 348.97,93.7779 351.303,97.6112 353.5,101.5 Z"/></g>
<g><path style="opacity:1" fill="#929292" d="M 353.5,101.5 C 357.493,108.624 360.827,116.124 363.5,124C 362.207,124.49 360.873,124.657 359.5,124.5C 359.663,122.143 359.497,119.81 359,117.5C 356.854,112.226 355.02,106.893 353.5,101.5 Z"/></g>
<g><path style="opacity:1" fill="#1b1b17" d="M 210.5,195.5 C 214.423,196.795 218.09,198.628 221.5,201C 223.954,202.74 225.454,204.907 226,207.5C 223.099,203.975 219.599,201.308 215.5,199.5C 201.902,193.97 190.068,196.637 180,207.5C 179.333,206.833 179.333,206.167 180,205.5C 188.367,196.878 198.534,193.544 210.5,195.5 Z"/></g>
<g><path style="opacity:1" fill="#ae8b5b" d="M 227.5,229.5 C 217.426,214.795 203.426,208.795 185.5,211.5C 192.986,201.731 202.653,198.897 214.5,203C 223.604,208.947 229.938,217.114 233.5,227.5C 231.505,228.295 229.505,228.961 227.5,229.5 Z"/></g>
<g><path style="opacity:1" fill="#eae8be" d="M 437.5,220.5 C 437.5,219.833 437.5,219.167 437.5,218.5C 439.54,216.823 441.54,215.156 443.5,213.5C 445.027,213.573 446.027,212.906 446.5,211.5C 445.153,212.028 443.819,212.195 442.5,212C 444.373,210.296 446.04,208.463 447.5,206.5C 457.933,199.994 468.433,199.994 479,206.5C 486.095,217.475 488.428,229.475 486,242.5C 484.608,251.352 481.275,259.352 476,266.5C 464.5,278 453,289.5 441.5,301C 437.494,304.005 433.16,306.505 428.5,308.5C 427.167,306.167 427.167,303.833 428.5,301.5C 445.51,289.655 459.677,274.989 471,257.5C 474.522,251.601 476.855,245.268 478,238.5C 478.59,242.297 478.09,245.964 476.5,249.5C 476.846,250.696 477.346,250.696 478,249.5C 480.752,241.501 481.085,233.501 479,225.5C 478.833,226.167 478.667,226.833 478.5,227.5C 479.496,230.797 479.663,234.131 479,237.5C 478,232.5 477,227.5 476,222.5C 474.999,219.827 473.499,217.493 471.5,215.5C 472.025,214.808 472.692,214.308 473.5,214C 465.859,210.809 458.193,210.809 450.5,214C 446.114,216.193 441.78,218.36 437.5,220.5 Z"/></g>
<g><path style="opacity:1" fill="#9d9b7e" d="M 447.5,206.5 C 446.04,208.463 444.373,210.296 442.5,212C 443.819,212.195 445.153,212.028 446.5,211.5C 446.027,212.906 445.027,213.573 443.5,213.5C 440.484,214.343 437.817,215.843 435.5,218C 434.549,218.718 434.383,219.551 435,220.5C 435.708,219.619 436.542,218.953 437.5,218.5C 437.5,219.167 437.5,219.833 437.5,220.5C 430.099,227.789 428.599,226.455 433,216.5C 437.182,212.14 442.015,208.807 447.5,206.5 Z"/></g>
<g><path style="opacity:1" fill="#ae8b5b" d="M 339.5,208.5 C 344.233,208.223 348.9,208.557 353.5,209.5C 354.53,215.469 355.364,221.469 356,227.5C 356.578,230.903 357.745,234.07 359.5,237C 351.633,239.076 343.633,240.41 335.5,241C 321.833,241.667 308.167,241.667 294.5,241C 305.433,224.23 320.433,213.397 339.5,208.5 Z"/></g>
<g><path style="opacity:1" fill="#323129" d="M 452.5,208.5 C 450.819,210.008 448.819,211.008 446.5,211.5C 447.911,209.461 449.911,208.461 452.5,208.5 Z"/></g>
<g><path style="opacity:1" fill="#2f2e26" d="M 452.5,208.5 C 459.806,203.967 467.473,203.467 475.5,207C 480.781,213.44 480.448,213.773 474.5,208C 467.119,206.019 459.786,206.186 452.5,208.5 Z"/></g>
<g><path style="opacity:1" fill="#dfc59e" d="M 185.5,211.5 C 203.426,208.795 217.426,214.795 227.5,229.5C 225.254,230.455 222.921,231.122 220.5,231.5C 216.942,234.552 213.442,237.886 210,241.5C 200.568,254.008 200.234,266.674 209,279.5C 199.459,257.642 205.625,241.642 227.5,231.5C 228.822,231.33 229.989,231.663 231,232.5C 234.03,237.015 237.197,241.349 240.5,245.5C 245.839,266.244 238.839,281.744 219.5,292C 220.5,292.667 221.5,292.667 222.5,292C 231.985,286.563 238.818,278.73 243,268.5C 244.625,275.331 244.958,282.331 244,289.5C 233.213,301.102 220.046,304.936 204.5,301C 185.285,294.452 174.785,280.952 173,260.5C 170.161,242.217 174.327,225.883 185.5,211.5 Z"/></g>
<g><path style="opacity:1" fill="#ad8b5b" d="M 399.5,213.5 C 401.833,213.5 404.167,213.5 406.5,213.5C 407.823,222.134 410.157,230.467 413.5,238.5C 401.901,240.149 390.235,240.816 378.5,240.5C 379.202,226.478 386.202,217.478 399.5,213.5 Z"/></g>
<g><path style="opacity:1" fill="#aa8858" d="M 472.5,220.5 C 463.784,221.543 455.117,223.043 446.5,225C 444.121,225.716 442.121,226.883 440.5,228.5C 436.313,229.927 432.313,231.927 428.5,234.5C 427.432,232.813 427.599,231.146 429,229.5C 439.549,219.471 452.049,214.305 466.5,214C 469.409,215.406 471.409,217.572 472.5,220.5 Z"/></g>
<g><path style="opacity:1" fill="#323129" d="M 443.5,213.5 C 441.54,215.156 439.54,216.823 437.5,218.5C 436.542,218.953 435.708,219.619 435,220.5C 434.383,219.551 434.549,218.718 435.5,218C 437.817,215.843 440.484,214.343 443.5,213.5 Z"/></g>
<g><path style="opacity:1" fill="#dec49d" d="M 472.5,220.5 C 477.851,231.571 477.351,242.571 471,253.5C 462.056,268.122 451.222,281.288 438.5,293C 434.856,295.656 430.856,297.489 426.5,298.5C 425.902,293.441 425.902,288.441 426.5,283.5C 432.929,284.2 438.929,282.7 444.5,279C 439.13,281.009 433.463,281.843 427.5,281.5C 427.664,278.813 427.497,276.146 427,273.5C 424.172,269.014 421.005,264.848 417.5,261C 420.257,253.474 423.09,245.974 426,238.5C 432.52,233.152 440.02,229.819 448.5,228.5C 451.919,230.443 454.085,233.443 455,237.5C 455.961,244.336 455.295,251.003 453,257.5C 450.504,262.838 447.838,267.838 445,272.5C 457.699,259.58 460.199,245.08 452.5,229C 458.614,228.26 464.114,229.76 469,233.5C 469.167,233.167 469.333,232.833 469.5,232.5C 466.425,229.632 462.759,227.799 458.5,227C 452.423,226.512 446.423,227.012 440.5,228.5C 442.121,226.883 444.121,225.716 446.5,225C 455.117,223.043 463.784,221.543 472.5,220.5 Z"/></g>
<g><path style="opacity:1" fill="#201d19" d="M 220.5,231.5 C 210.471,224.124 199.804,222.958 188.5,228C 185.635,231.057 182.969,233.557 180.5,235.5C 187.8,223.254 198.133,219.754 211.5,225C 215.276,226.209 218.276,228.376 220.5,231.5 Z"/></g>
<g><path style="opacity:1" fill="#aaa98a" d="M 271.5,232.5 C 267.233,256.559 277.233,269.559 301.5,271.5C 299.628,273.91 298.295,276.577 297.5,279.5C 281.336,283.668 271.169,277.668 267,261.5C 265.328,251.195 266.828,241.528 271.5,232.5 Z"/></g>
<g><path style="opacity:1" fill="#a98757" d="M 227.5,231.5 C 231.694,229.612 235.194,230.612 238,234.5C 239.904,237.923 240.737,241.59 240.5,245.5C 237.197,241.349 234.03,237.015 231,232.5C 229.989,231.663 228.822,231.33 227.5,231.5 Z"/></g>
<g><path style="opacity:1" fill="#a68557" d="M 417.5,243.5 C 415.725,251.776 410.725,256.942 402.5,259C 403.056,259.383 403.389,259.883 403.5,260.5C 394.881,258.938 387.047,255.605 380,250.5C 379.503,247.854 379.336,245.187 379.5,242.5C 382.889,244.375 386.223,246.542 389.5,249C 397.123,251.192 404.456,250.859 411.5,248C 410.5,249 409.5,250 408.5,251C 412.169,249.515 415.169,247.015 417.5,243.5 Z"/></g>
<g><path style="opacity:1" fill="#e8dd14" d="M 406.5,241.5 C 408.379,241.393 408.712,241.893 407.5,243C 403.106,245.374 398.44,246.041 393.5,245C 392.244,244.583 391.577,243.75 391.5,242.5C 392.833,242.5 394.167,242.5 395.5,242.5C 397.916,245.034 400.25,245.034 402.5,242.5C 403.708,241.766 405.041,241.433 406.5,241.5 Z"/></g>
<g><path style="opacity:1" fill="#f1e617" d="M 350.5,241.5 C 348.669,243.776 346.336,245.609 343.5,247C 338.167,247.667 332.833,247.667 327.5,247C 326.167,246.333 324.833,245.667 323.5,245C 326.482,244.502 329.482,244.335 332.5,244.5C 336.104,246.03 339.437,245.697 342.5,243.5C 345.115,242.709 347.782,242.043 350.5,241.5 Z"/></g>
<g><path style="opacity:1" fill="#414f2c" d="M 391.5,242.5 C 391.577,243.75 392.244,244.583 393.5,245C 398.44,246.041 403.106,245.374 407.5,243C 408.712,241.893 408.379,241.393 406.5,241.5C 409.228,240.795 412.061,240.128 415,239.5C 413.571,243.915 410.404,246.748 405.5,248C 397.61,249.769 390.61,248.102 384.5,243C 386.81,242.503 389.143,242.337 391.5,242.5 Z"/></g>
<g><path style="opacity:1" fill="#f6f1bb" d="M 395.5,242.5 C 397.833,242.5 400.167,242.5 402.5,242.5C 400.25,245.034 397.916,245.034 395.5,242.5 Z"/></g>
<g><path style="opacity:1" fill="#404f2e" d="M 332.5,243.5 C 332.5,243.833 332.5,244.167 332.5,244.5C 329.482,244.335 326.482,244.502 323.5,245C 324.833,245.667 326.167,246.333 327.5,247C 332.833,247.667 338.167,247.667 343.5,247C 346.336,245.609 348.669,243.776 350.5,241.5C 353.546,240.816 356.546,240.316 359.5,240C 354.897,246.798 348.563,250.798 340.5,252C 324.961,253.855 310.295,251.189 296.5,244C 308.501,244.788 320.501,244.621 332.5,243.5 Z"/></g>
<g><path style="opacity:1" fill="#e7e7e2" d="M 332.5,244.5 C 332.5,244.167 332.5,243.833 332.5,243.5C 335.833,243.5 339.167,243.5 342.5,243.5C 339.437,245.697 336.104,246.03 332.5,244.5 Z"/></g>
<g><path style="opacity:1" fill="#c6ae8c" d="M 356.5,254.5 C 354.901,254.768 353.568,254.434 352.5,253.5C 359.198,250.685 366.198,249.852 373.5,251C 367.784,252.013 362.117,253.18 356.5,254.5 Z"/></g>
<g><path style="opacity:1" fill="#a88758" d="M 291.5,244.5 C 300.557,253.691 311.557,257.858 324.5,257C 314.715,256.247 305.715,253.247 297.5,248C 296.304,247.346 296.304,246.846 297.5,246.5C 313.403,254.087 330.07,256.587 347.5,254C 340.897,262.178 332.231,265.345 321.5,263.5C 307.842,262.685 297.842,256.351 291.5,244.5 Z"/></g>
<g><path style="opacity:1" fill="#997a4f" d="M 352.5,253.5 C 353.568,254.434 354.901,254.768 356.5,254.5C 351.683,256.497 347.183,259.164 343,262.5C 345.186,258.822 348.353,255.822 352.5,253.5 Z"/></g>
<g><path style="opacity:1" fill="#a28255" d="M 362.5,255.5 C 362.918,256.222 363.584,256.722 364.5,257C 368.356,257.177 372.023,257.677 375.5,258.5C 366.444,259.304 357.444,260.137 348.5,261C 352.833,258.334 357.5,256.501 362.5,255.5 Z"/></g>
<g><path style="opacity:1" fill="#ddc39e" d="M 375.5,258.5 C 372.023,257.677 368.356,257.177 364.5,257C 363.584,256.722 362.918,256.222 362.5,255.5C 372.268,252.461 381.601,253.628 390.5,259C 385.533,258.839 380.533,258.672 375.5,258.5 Z"/></g>
<g><path style="opacity:1" fill="#8d8b70" d="M 417.5,252.5 C 418.097,252.735 418.43,253.235 418.5,254C 416.515,257.055 415.682,260.222 416,263.5C 414.184,262.671 412.351,261.837 410.5,261C 413.447,258.564 415.78,255.731 417.5,252.5 Z"/></g>
<g><path style="opacity:1" fill="#21201b" d="M 164.5,247.5 C 166.534,257.129 169.034,266.796 172,276.5C 167.161,267.477 164.661,257.81 164.5,247.5 Z"/></g>
<g><path style="opacity:1" fill="#dfc49e" d="M 376.5,267.5 C 376.336,270.187 376.503,272.854 377,275.5C 378.714,271.437 378.88,267.437 377.5,263.5C 377.281,262.325 377.614,261.325 378.5,260.5C 381.582,271.427 380.749,282.093 376,292.5C 374.925,296.77 374.425,301.103 374.5,305.5C 373.126,307.517 373.293,309.517 375,311.5C 375.475,317.842 375.975,324.176 376.5,330.5C 376.5,332.167 376.5,333.833 376.5,335.5C 372.818,335.665 369.152,335.499 365.5,335C 345.931,328.266 325.931,326.766 305.5,330.5C 309.901,322.032 314.568,313.699 319.5,305.5C 329.961,302.936 339.294,298.27 347.5,291.5C 349.906,290.477 349.906,289.81 347.5,289.5C 334.606,293.74 321.606,294.24 308.5,291C 304.725,289.558 301.892,287.058 300,283.5C 300.111,274.045 304.944,268.545 314.5,267C 334.187,264.965 353.853,262.798 373.5,260.5C 376.092,262.026 377.092,264.359 376.5,267.5 Z"/></g>
<g><path style="opacity:1" fill="#a98757" d="M 400.5,262.5 C 397.15,262.335 393.817,262.502 390.5,263C 387.903,268.625 385.236,274.125 382.5,279.5C 383.771,273.636 383.771,267.802 382.5,262C 388.681,261.181 394.681,261.347 400.5,262.5 Z"/></g>
<g><path style="opacity:1" fill="#1a1611" d="M 336.5,272.5 C 330.628,272.071 324.628,272.571 318.5,274C 315.168,274.999 312.168,276.499 309.5,278.5C 311.947,275.101 315.28,272.935 319.5,272C 325.204,271.313 330.87,271.479 336.5,272.5 Z"/></g>
<g><path style="opacity:1" fill="#9f7f52" d="M 336.5,272.5 C 340.252,274.899 344.252,276.899 348.5,278.5C 348.5,278.833 348.5,279.167 348.5,279.5C 343.093,277.866 337.593,276.533 332,275.5C 327.923,275.914 324.09,277.081 320.5,279C 318.398,280.733 318.065,282.733 319.5,285C 321.727,285.941 323.727,287.108 325.5,288.5C 319.683,289.481 314.85,287.814 311,283.5C 309.991,281.975 309.491,280.308 309.5,278.5C 312.168,276.499 315.168,274.999 318.5,274C 324.628,272.571 330.628,272.071 336.5,272.5 Z"/></g>
<g><path style="opacity:1" fill="#675b49" d="M 377.5,263.5 C 378.88,267.437 378.714,271.437 377,275.5C 376.503,272.854 376.336,270.187 376.5,267.5C 377.434,266.432 377.768,265.099 377.5,263.5 Z"/></g>
<g><path style="opacity:1" fill="#0f0d0a" d="M 348.5,279.5 C 355.642,283.068 360.475,288.735 363,296.5C 363.808,298.579 363.641,300.579 362.5,302.5C 361.771,295.518 358.438,290.351 352.5,287C 343.557,287.876 334.557,288.376 325.5,288.5C 323.727,287.108 321.727,285.941 319.5,285C 318.065,282.733 318.398,280.733 320.5,279C 324.09,277.081 327.923,275.914 332,275.5C 337.593,276.533 343.093,277.866 348.5,279.5 Z"/></g>
<g><path style="opacity:1" fill="#1d1a15" d="M 348.5,279.5 C 348.5,279.167 348.5,278.833 348.5,278.5C 350.97,278.027 353.304,278.861 355.5,281C 353.243,280.563 350.91,280.063 348.5,279.5 Z"/></g>
<g><path style="opacity:1" fill="#2d2820" d="M 376.5,278.5 C 377.773,281.196 377.439,283.862 375.5,286.5C 375.167,286.333 374.833,286.167 374.5,286C 375.554,283.618 376.221,281.118 376.5,278.5 Z"/></g>
<g><path style="opacity:1" fill="#171714" d="M 176.5,284.5 C 178.085,285.002 178.585,286.002 178,287.5C 176.961,286.756 176.461,285.756 176.5,284.5 Z"/></g>
<g><path style="opacity:1" fill="#eceac0" d="M 414.5,302.5 C 414.5,298.833 414.5,295.167 414.5,291.5C 417.711,290.987 420.544,289.654 423,287.5C 425.912,302.709 427.579,318.043 428,333.5C 426.668,328.186 425.335,322.853 424,317.5C 422.931,317.64 421.764,317.64 420.5,317.5C 418.204,312.581 416.204,307.581 414.5,302.5 Z"/></g>
<g><path style="opacity:1" fill="#aba989" d="M 302.5,290.5 C 308.457,293.976 314.79,296.643 321.5,298.5C 319.474,301.897 317.474,305.23 315.5,308.5C 309.223,303.961 304.889,297.961 302.5,290.5 Z"/></g>
<g><path style="opacity:1" fill="#dfc59e" d="M 400.5,262.5 C 407.218,262.41 413.551,263.91 419.5,267C 426.952,273.441 427.285,280.108 420.5,287C 413.692,289.222 406.692,290.055 399.5,289.5C 395.399,288.932 391.399,287.932 387.5,286.5C 389.265,285.539 391.265,285.205 393.5,285.5C 400.801,286.876 408.134,286.376 415.5,284C 416.823,283.184 417.489,282.017 417.5,280.5C 416.793,275.29 413.793,272.123 408.5,271C 404.833,270.333 401.167,270.333 397.5,271C 396.944,271.383 396.611,271.883 396.5,272.5C 395.027,274.395 393.36,276.061 391.5,277.5C 383.651,283.197 380.151,290.864 381,300.5C 381.113,296.463 382.279,292.796 384.5,289.5C 393.923,293.046 402.923,297.379 411.5,302.5C 415.439,310.712 419.106,319.045 422.5,327.5C 421.817,329.176 420.483,329.843 418.5,329.5C 417.404,327.897 416.07,326.397 414.5,325C 413.563,324.308 412.897,324.475 412.5,325.5C 412.53,326.497 412.03,327.164 411,327.5C 404.801,326.13 398.635,326.297 392.5,328C 389.271,330.741 385.938,333.241 382.5,335.5C 381.18,329.885 380.014,324.218 379,318.5C 377.436,305.177 378.603,292.177 382.5,279.5C 385.236,274.125 387.903,268.625 390.5,263C 393.817,262.502 397.15,262.335 400.5,262.5 Z"/></g>
<g><path style="opacity:1" fill="#a78658" d="M 396.5,272.5 C 400.846,272.334 405.179,272.501 409.5,273C 413.556,274.389 415.723,277.223 416,281.5C 416.383,280.944 416.883,280.611 417.5,280.5C 417.489,282.017 416.823,283.184 415.5,284C 408.134,286.376 400.801,286.876 393.5,285.5C 399.345,285.849 405.012,285.016 410.5,283C 413.192,280.368 412.859,278.034 409.5,276C 403.31,274.002 397.31,274.502 391.5,277.5C 393.36,276.061 395.027,274.395 396.5,272.5 Z"/></g>
<g><path style="opacity:1" fill="#0c0906" d="M 393.5,285.5 C 391.265,285.205 389.265,285.539 387.5,286.5C 386.167,287.167 385.167,288.167 384.5,289.5C 382.279,292.796 381.113,296.463 381,300.5C 380.151,290.864 383.651,283.197 391.5,277.5C 397.31,274.502 403.31,274.002 409.5,276C 412.859,278.034 413.192,280.368 410.5,283C 405.012,285.016 399.345,285.849 393.5,285.5 Z"/></g>
<g><path style="opacity:1" fill="#1e1a14" d="M 417.5,280.5 C 416.883,280.611 416.383,280.944 416,281.5C 415.723,277.223 413.556,274.389 409.5,273C 405.179,272.501 400.846,272.334 396.5,272.5C 396.611,271.883 396.944,271.383 397.5,271C 401.167,270.333 404.833,270.333 408.5,271C 413.793,272.123 416.793,275.29 417.5,280.5 Z"/></g>
<g><path style="opacity:1" fill="#a88657" d="M 387.5,286.5 C 391.399,287.932 395.399,288.932 399.5,289.5C 398.127,289.343 396.793,289.51 395.5,290C 399.625,293.23 404.292,295.063 409.5,295.5C 409.878,297.921 410.545,300.254 411.5,302.5C 402.923,297.379 393.923,293.046 384.5,289.5C 385.167,288.167 386.167,287.167 387.5,286.5 Z"/></g>
<g><path style="opacity:1" fill="#a5a386" d="M 414.5,291.5 C 414.5,295.167 414.5,298.833 414.5,302.5C 412.853,299.271 411.186,295.937 409.5,292.5C 411.045,291.548 412.712,291.215 414.5,291.5 Z"/></g>
<g><path style="opacity:1" fill="#a38152" d="M 347.5,291.5 C 339.294,298.27 329.961,302.936 319.5,305.5C 320.028,304.279 320.695,303.113 321.5,302C 330.185,298.387 338.852,294.887 347.5,291.5 Z"/></g>
<g><path style="opacity:1" fill="#1b1712" d="M 400.5,303.5 C 402.952,304.736 404.119,306.736 404,309.5C 402.558,307.609 401.391,305.609 400.5,303.5 Z"/></g>
<g><path style="opacity:1" fill="#e5902a" d="M 172.5,305.5 C 179.813,306.298 181.313,309.631 177,315.5C 174.537,318.965 171.704,322.131 168.5,325C 166.323,326.202 163.989,326.702 161.5,326.5C 161.758,317.648 165.425,310.648 172.5,305.5 Z"/></g>
<g><path style="opacity:1" fill="#5d5c4b" d="M 239.5,303.5 C 239.5,304.167 239.5,304.833 239.5,305.5C 233.14,308.454 226.473,309.621 219.5,309C 226.467,308.093 233.134,306.259 239.5,303.5 Z"/></g>
<g><path style="opacity:1" fill="#a4a3a3" d="M 159.5,321.5 C 158.662,321.158 158.328,320.492 158.5,319.5C 160.709,312.777 164.709,307.277 170.5,303C 173.315,301.279 176.315,300.612 179.5,301C 169.289,304.378 162.622,311.211 159.5,321.5 Z"/></g>
<g><path style="opacity:1" fill="#3a3126" d="M 338.5,306.5 C 339.748,307.334 340.415,308.667 340.5,310.5C 340.167,311.833 339.833,313.167 339.5,314.5C 338.52,311.914 338.187,309.247 338.5,306.5 Z"/></g>
<g><path style="opacity:1" fill="#26221c" d="M 346.5,307.5 C 348.199,311.251 349.532,315.251 350.5,319.5C 350.167,319.833 349.833,320.167 349.5,320.5C 347.401,316.435 346.401,312.101 346.5,307.5 Z"/></g>
<g><path style="opacity:1" fill="#302920" d="M 412.5,325.5 C 412.897,324.475 413.563,324.308 414.5,325C 416.07,326.397 417.404,327.897 418.5,329.5C 419.303,330.423 419.47,331.423 419,332.5C 416.6,330.271 414.433,327.937 412.5,325.5 Z"/></g>
<g><path style="opacity:1" fill="#5b5b5b" d="M 158.5,319.5 C 158.328,320.492 158.662,321.158 159.5,321.5C 159.104,324.044 159.771,326.211 161.5,328C 164.22,327.865 166.886,327.532 169.5,327C 166.5,329.003 163.167,329.836 159.5,329.5C 157.454,326.216 157.121,322.883 158.5,319.5 Z"/></g>
<g><path style="opacity:1" fill="#c4a883" d="M 412.5,325.5 C 414.433,327.937 416.6,330.271 419,332.5C 419.47,331.423 419.303,330.423 418.5,329.5C 420.483,329.843 421.817,329.176 422.5,327.5C 424.095,330.557 425.262,333.89 426,337.5C 432.878,347.251 437.545,357.918 440,369.5C 439.581,368.328 438.915,367.328 438,366.5C 437.833,366.833 437.667,367.167 437.5,367.5C 442.244,372.408 444.578,378.408 444.5,385.5C 444.815,389.371 444.482,393.038 443.5,396.5C 443.108,394.821 442.608,393.154 442,391.5C 441.346,390.304 440.846,390.304 440.5,391.5C 441.08,394.311 441.746,396.977 442.5,399.5C 441.833,401.5 441.167,403.5 440.5,405.5C 437.334,410.331 433,413.664 427.5,415.5C 427.631,414.624 427.298,413.957 426.5,413.5C 425.614,414.325 425.281,415.325 425.5,416.5C 424.85,416.804 424.183,417.137 423.5,417.5C 422.824,416.398 422.158,415.398 421.5,414.5C 421.154,412.295 420.487,412.128 419.5,414C 419.989,415.138 420.322,416.305 420.5,417.5C 419.828,418.267 418.995,418.934 418,419.5C 416.886,415.544 416.053,415.544 415.5,419.5C 415.5,420.5 415.5,421.5 415.5,422.5C 414.5,422.5 413.5,422.5 412.5,422.5C 412.328,413.19 411.828,413.19 411,422.5C 409.879,407.686 406.712,393.353 401.5,379.5C 399.95,374.07 397.616,369.07 394.5,364.5C 390.108,354.99 386.108,345.323 382.5,335.5C 385.938,333.241 389.271,330.741 392.5,328C 398.635,326.297 404.801,326.13 411,327.5C 412.03,327.164 412.53,326.497 412.5,325.5 Z"/></g>
<g><path style="opacity:1" fill="#c5aa84" d="M 376.5,330.5 C 377.288,333.887 378.288,337.22 379.5,340.5C 381.232,344.697 382.565,349.031 383.5,353.5C 385.067,359.879 387.4,365.879 390.5,371.5C 399.516,386.888 404.516,403.554 405.5,421.5C 403.881,423.238 401.881,423.738 399.5,423C 400.517,421.951 400.684,420.784 400,419.5C 398.731,420.905 398.231,422.571 398.5,424.5C 395.5,424.5 392.5,424.5 389.5,424.5C 389.662,422.473 389.495,420.473 389,418.5C 388.617,417.944 388.117,417.611 387.5,417.5C 386.834,420.028 386.168,422.694 385.5,425.5C 382.579,426.407 379.579,426.74 376.5,426.5C 375.833,422.5 375.167,422.5 374.5,426.5C 371.102,426.82 367.768,426.487 364.5,425.5C 365.609,423.786 364.942,423.119 362.5,423.5C 362.5,424.5 362.5,425.5 362.5,426.5C 347.097,426.098 331.764,426.764 316.5,428.5C 310.8,428.369 305.134,427.869 299.5,427C 294.243,424.744 290.743,420.91 289,415.5C 288.309,417.891 287.309,417.891 286,415.5C 284.04,412.415 282.207,409.248 280.5,406C 280.728,405.601 281.062,405.435 281.5,405.5C 282.653,402.52 282.32,399.52 280.5,396.5C 279.548,398.045 279.215,399.712 279.5,401.5C 278.833,400.833 278.167,400.167 277.5,399.5C 277.366,395.698 278.033,392.032 279.5,388.5C 279.221,386.657 278.887,384.823 278.5,383C 279.608,379.179 280.608,375.345 281.5,371.5C 282.822,371.67 283.989,371.337 285,370.5C 285.837,368.649 286.671,366.816 287.5,365C 286.692,364.692 286.025,364.192 285.5,363.5C 286.86,360.78 288.193,358.114 289.5,355.5C 291.223,353.747 292.723,351.747 294,349.5C 294.333,349.833 294.667,350.167 295,350.5C 296.878,348.957 298.378,347.124 299.5,345C 298.692,344.692 298.025,344.192 297.5,343.5C 299.941,338.935 302.608,334.602 305.5,330.5C 325.931,326.766 345.931,328.266 365.5,335C 369.152,335.499 372.818,335.665 376.5,335.5C 376.5,333.833 376.5,332.167 376.5,330.5 Z"/></g>
<g><path style="opacity:1" fill="#16130e" d="M 393.5,329.5 C 394.117,329.611 394.617,329.944 395,330.5C 395.667,332.833 395.667,335.167 395,337.5C 393.921,334.937 393.421,332.271 393.5,329.5 Z"/></g>
<g><path style="opacity:1" fill="#6b5537" d="M 402.5,330.5 C 405.292,331.392 406.625,333.392 406.5,336.5C 405.5,336.5 404.5,336.5 403.5,336.5C 403.167,334.5 402.833,332.5 402.5,330.5 Z"/></g>
<g><path style="opacity:1" fill="#221e18" d="M 306.5,333.5 C 306.796,336.315 305.796,338.982 303.5,341.5C 303.167,341.167 302.833,340.833 302.5,340.5C 304.098,338.302 305.431,335.969 306.5,333.5 Z"/></g>
<g><path style="opacity:1" fill="#211d17" d="M 411.5,334.5 C 413.179,336 414.512,337.833 415.5,340C 413.156,339.235 411.823,337.402 411.5,334.5 Z"/></g>
<g><path style="opacity:1" fill="#31271a" d="M 361.5,335.5 C 363.162,337.912 364.162,340.746 364.5,344C 363.551,344.617 362.718,344.451 362,343.5C 361.503,340.854 361.336,338.187 361.5,335.5 Z"/></g>
<g><path style="opacity:1" fill="#3a3a30" d="M 251.5,335.5 C 252.418,339.083 252.084,342.75 250.5,346.5C 249.889,342.838 250.223,339.171 251.5,335.5 Z"/></g>
<g><path style="opacity:1" fill="#31281d" d="M 387.5,340.5 C 390.119,341.403 390.786,343.069 389.5,345.5C 388.438,343.978 387.771,342.312 387.5,340.5 Z"/></g>
<g><path style="opacity:1" fill="#231e18" d="M 420.5,338.5 C 423.32,340.478 424.82,343.145 425,346.5C 422.716,344.264 421.216,341.598 420.5,338.5 Z"/></g>
<g><path style="opacity:1" fill="#211c15" d="M 316.5,344.5 C 317.633,348.119 317.299,351.785 315.5,355.5C 314.406,351.723 314.739,348.056 316.5,344.5 Z"/></g>
<g><path style="opacity:1" fill="#1c1711" d="M 327.5,342.5 C 328.773,345.196 328.439,347.862 326.5,350.5C 325.522,347.732 325.855,345.066 327.5,342.5 Z"/></g>
<g><path style="opacity:1" fill="#15110c" d="M 348.5,343.5 C 349.043,343.56 349.376,343.893 349.5,344.5C 348.164,347.51 346.831,350.51 345.5,353.5C 345.239,349.936 346.239,346.603 348.5,343.5 Z"/></g>
<g><path style="opacity:1" fill="#555445" d="M 253.5,339.5 C 254.816,342.087 255.483,345.087 255.5,348.5C 255.167,351.5 254.833,354.5 254.5,357.5C 253.504,351.537 253.171,345.537 253.5,339.5 Z"/></g>
<g><path style="opacity:1" fill="#423421" d="M 383.5,353.5 C 382.565,349.031 381.232,344.697 379.5,340.5C 379.721,337.903 380.221,337.903 381,340.5C 383.356,346.84 385.356,353.173 387,359.5C 386.059,357.273 384.892,355.273 383.5,353.5 Z"/></g>
<g><path style="opacity:1" fill="#231e17" d="M 410.5,349.5 C 412.377,350.659 412.877,352.326 412,354.5C 410.731,353.095 410.231,351.429 410.5,349.5 Z"/></g>
<g><path style="opacity:1" fill="#14110d" d="M 397.5,348.5 C 398.497,348.47 399.164,348.97 399.5,350C 400.791,352.05 401.291,354.217 401,356.5C 399.546,353.929 398.38,351.262 397.5,348.5 Z"/></g>
<g><path style="opacity:1" fill="#312b22" d="M 304.5,350.5 C 305.532,352.503 305.198,354.503 303.5,356.5C 302.531,354.383 302.864,352.383 304.5,350.5 Z"/></g>
<g><path style="opacity:1" fill="#19140e" d="M 365.5,352.5 C 366.333,355.218 365.833,357.885 364,360.5C 363.282,357.593 363.782,354.926 365.5,352.5 Z"/></g>
<g><path style="opacity:1" fill="#3a3023" d="M 374.5,347.5 C 375.806,350.687 375.806,354.02 374.5,357.5C 373.249,354.126 373.249,350.793 374.5,347.5 Z"/></g>
<g><path style="opacity:1" fill="#1b1711" d="M 356.5,352.5 C 357.667,355.88 357.167,359.213 355,362.5C 354.537,359.02 355.037,355.686 356.5,352.5 Z"/></g>
<g><path style="opacity:1" fill="#181510" d="M 421.5,350.5 C 423.755,352.688 424.589,355.354 424,358.5C 422.554,356.059 421.721,353.392 421.5,350.5 Z"/></g>
<g><path style="opacity:0.998" fill="#13100b" d="M 288.5,354.5 C 289.167,354.5 289.5,354.833 289.5,355.5C 288.193,358.114 286.86,360.78 285.5,363.5C 286.025,364.192 286.692,364.692 287.5,365C 286.671,366.816 285.837,368.649 285,370.5C 283.989,371.337 282.822,371.67 281.5,371.5C 280.608,375.345 279.608,379.179 278.5,383C 278.887,384.823 279.221,386.657 279.5,388.5C 278.033,392.032 277.366,395.698 277.5,399.5C 279.173,415.205 287.006,426.539 301,433.5C 305.1,432.1 309.267,430.933 313.5,430C 336.87,429.969 360.204,429.135 383.5,427.5C 385.167,427.167 386.833,426.833 388.5,426.5C 387.593,423.579 387.26,420.579 387.5,417.5C 388.117,417.611 388.617,417.944 389,418.5C 389.495,420.473 389.662,422.473 389.5,424.5C 390.152,425.725 391.319,426.392 393,426.5C 396.143,425.893 399.31,425.559 402.5,425.5C 403.167,425.5 403.5,425.833 403.5,426.5C 374.012,430.811 344.346,432.644 314.5,432C 310.789,432.844 307.123,433.844 303.5,435C 326.418,437.923 349.418,440.09 372.5,441.5C 384.295,441.219 395.628,438.719 406.5,434C 418.115,431.398 429.782,429.231 441.5,427.5C 442.167,427.5 442.5,427.833 442.5,428.5C 441.522,428.811 440.855,429.478 440.5,430.5C 442.316,438.359 439.316,443.526 431.5,446C 417.532,450.538 403.198,452.371 388.5,451.5C 372.915,450.27 357.581,450.27 342.5,451.5C 340.401,449.466 338.068,449.132 335.5,450.5C 334.268,453.3 333.601,456.3 333.5,459.5C 333.806,467.362 335.14,475.029 337.5,482.5C 337.5,483.5 337.5,484.5 337.5,485.5C 332.521,476.234 330.354,466.234 331,455.5C 330.506,457.134 330.34,458.801 330.5,460.5C 327.833,459.833 325.167,459.167 322.5,458.5C 308.075,450.915 295.909,440.582 286,427.5C 283.299,422.147 280.632,416.814 278,411.5C 277.667,413.833 277.333,416.167 277,418.5C 274.752,415.672 272.752,412.672 271,409.5C 271.538,412.794 271.871,416.127 272,419.5C 268.825,415.81 266.158,411.81 264,407.5C 263.387,412.431 263.887,417.264 265.5,422C 265.333,422.833 265.167,423.667 265,424.5C 263.905,423.307 263.072,421.973 262.5,420.5C 263.686,419.039 263.686,417.705 262.5,416.5C 261.45,402.812 260.616,389.146 260,375.5C 264.423,387.777 269.423,399.777 275,411.5C 275.689,405.81 275.522,400.143 274.5,394.5C 274.939,390.914 275.606,387.414 276.5,384C 275.833,383.667 275.167,383.333 274.5,383C 278.507,373.125 283.174,363.625 288.5,354.5 Z"/></g>
<g><path style="opacity:1" fill="#19150f" d="M 295.5,358.5 C 296.325,360.125 295.992,361.792 294.5,363.5C 293.348,361.603 293.681,359.936 295.5,358.5 Z"/></g>
<g><path style="opacity:1" fill="#18140e" d="M 332.5,355.5 C 333.043,355.56 333.376,355.893 333.5,356.5C 332.692,358.925 331.692,361.258 330.5,363.5C 329.883,360.667 330.55,358 332.5,355.5 Z"/></g>
<g><path style="opacity:1" fill="#161410" d="M 382.5,367.5 C 382.631,368.239 382.464,368.906 382,369.5C 380.907,366.691 379.74,364.024 378.5,361.5C 378.351,360.448 378.517,359.448 379,358.5C 380.664,361.327 381.83,364.327 382.5,367.5 Z"/></g>
<g><path style="opacity:1" fill="#171410" d="M 394.5,355.5 C 396.223,357.253 397.723,359.253 399,361.5C 399.688,362.332 399.521,362.998 398.5,363.5C 396.113,361.393 394.78,358.727 394.5,355.5 Z"/></g>
<g><path style="opacity:1" fill="#907147" d="M 394.5,364.5 C 397.616,369.07 399.95,374.07 401.5,379.5C 400.637,378.537 399.97,378.537 399.5,379.5C 404.868,391.634 407.701,404.301 408,417.5C 405.267,400.967 399.933,385.3 392,370.5C 390.893,369.288 390.393,369.621 390.5,371.5C 387.4,365.879 385.067,359.879 383.5,353.5C 384.892,355.273 386.059,357.273 387,359.5C 385.356,353.173 383.356,346.84 381,340.5C 380.221,337.903 379.721,337.903 379.5,340.5C 378.288,337.22 377.288,333.887 376.5,330.5C 375.975,324.176 375.475,317.842 375,311.5C 373.293,309.517 373.126,307.517 374.5,305.5C 375.268,304.737 375.768,303.737 376,302.5C 376.423,325.544 382.589,346.211 394.5,364.5 Z"/></g>
<g><path style="opacity:1" fill="#16120c" d="M 309.5,360.5 C 310.803,363.355 310.803,366.355 309.5,369.5C 308.491,366.527 308.491,363.527 309.5,360.5 Z"/></g>
<g><path style="opacity:1" fill="#201c16" d="M 319.5,363.5 C 320.945,367.524 320.612,371.524 318.5,375.5C 317.935,371.514 318.268,367.514 319.5,363.5 Z"/></g>
<g><path style="opacity:1" fill="#16130f" d="M 410.5,364.5 C 412.175,366.179 413.008,368.179 413,370.5C 411.337,368.842 410.504,366.842 410.5,364.5 Z"/></g>
<g><path style="opacity:1" fill="#181410" d="M 343.5,364.5 C 344.802,367.107 344.636,369.773 343,372.5C 342.278,369.739 342.445,367.073 343.5,364.5 Z"/></g>
<g><path style="opacity:1" fill="#785c39" d="M 378.5,361.5 C 379.74,364.024 380.907,366.691 382,369.5C 382.464,368.906 382.631,368.239 382.5,367.5C 383.404,368.209 383.737,369.209 383.5,370.5C 382.178,370.67 381.011,370.337 380,369.5C 379.178,366.883 378.678,364.216 378.5,361.5 Z"/></g>
<g><path style="opacity:1" fill="#191510" d="M 300.5,367.5 C 301.043,367.56 301.376,367.893 301.5,368.5C 300.692,370.925 299.692,373.258 298.5,375.5C 298.067,372.753 298.734,370.087 300.5,367.5 Z"/></g>
<g><path style="opacity:1" fill="#362b1d" d="M 358.5,366.5 C 359.794,368.048 360.461,370.048 360.5,372.5C 360.333,374.5 360.167,376.5 360,378.5C 358.576,374.703 358.076,370.703 358.5,366.5 Z"/></g>
<g><path style="opacity:1" fill="#221e18" d="M 370.5,368.5 C 371.8,371.024 371.8,373.691 370.5,376.5C 369.271,373.801 369.271,371.135 370.5,368.5 Z"/></g>
<g><path style="opacity:1" fill="#1b1813" d="M 424.5,367.5 C 427.243,368.985 428.409,371.318 428,374.5C 426.733,372.186 425.566,369.852 424.5,367.5 Z"/></g>
<g><path style="opacity:1" fill="#424136" d="M 248.5,356.5 C 250.072,368.661 251.905,380.994 254,393.5C 249.937,381.578 248.104,369.244 248.5,356.5 Z"/></g>
<g><path style="opacity:1" fill="#191612" d="M 288.5,371.5 C 289.647,374.289 289.147,376.956 287,379.5C 286.572,376.678 287.072,374.012 288.5,371.5 Z"/></g>
<g><path style="opacity:1" fill="#14110d" d="M 402.5,370.5 C 404.708,371.918 405.542,373.918 405,376.5C 403.337,374.842 402.504,372.842 402.5,370.5 Z"/></g>
<g><path style="opacity:1" fill="#1b1610" d="M 348.5,374.5 C 349.8,377.024 349.8,379.691 348.5,382.5C 347.271,379.801 347.271,377.135 348.5,374.5 Z"/></g>
<g><path style="opacity:1" fill="#28231c" d="M 435.5,374.5 C 437.751,376.146 439.418,378.313 440.5,381C 439.668,381.688 439.002,381.521 438.5,380.5C 437.441,378.466 436.441,376.466 435.5,374.5 Z"/></g>
<g><path style="opacity:1" fill="#1a1612" d="M 409.5,375.5 C 412.367,378.233 413.867,381.566 414,385.5C 411.676,382.52 410.176,379.187 409.5,375.5 Z"/></g>
<g><path style="opacity:1" fill="#49493c" d="M 253.5,368.5 C 254.777,369.694 255.444,371.36 255.5,373.5C 256.23,378.526 256.73,383.526 257,388.5C 254.856,382.024 253.69,375.358 253.5,368.5 Z"/></g>
<g><path style="opacity:1" fill="#191611" d="M 387.5,375.5 C 389.117,377.121 390.284,379.121 391,381.5C 391.667,382.5 391.667,383.5 391,384.5C 389.278,381.721 388.111,378.721 387.5,375.5 Z"/></g>
<g><path style="opacity:1" fill="#18140e" d="M 331.5,377.5 C 332.124,377.917 332.457,378.584 332.5,379.5C 332.046,382.222 331.38,384.889 330.5,387.5C 329.3,384.027 329.634,380.694 331.5,377.5 Z"/></g>
<g><path style="opacity:1" fill="#201c16" d="M 419.5,377.5 C 422.266,379.51 423.933,382.343 424.5,386C 424.167,386.5 423.833,387 423.5,387.5C 422.157,384.15 420.823,380.817 419.5,377.5 Z"/></g>
<g><path style="opacity:1" fill="#241f17" d="M 378.5,379.5 C 380.922,380.992 381.588,382.992 380.5,385.5C 379.232,383.696 378.565,381.696 378.5,379.5 Z"/></g>
<g><path style="opacity:1" fill="#181511" d="M 431.5,383.5 C 434.005,385.186 434.838,387.519 434,390.5C 432.864,388.257 432.03,385.924 431.5,383.5 Z"/></g>
<g><path style="opacity:1" fill="#50422f" d="M 320.5,384.5 C 321.993,385.312 322.66,386.645 322.5,388.5C 321.382,392.299 320.382,392.132 319.5,388C 319.648,386.744 319.982,385.577 320.5,384.5 Z"/></g>
<g><path style="opacity:1" fill="#2d261d" d="M 339.5,383.5 C 340.586,383.62 341.253,384.287 341.5,385.5C 341.14,387.608 340.473,389.608 339.5,391.5C 338.795,388.911 338.795,386.244 339.5,383.5 Z"/></g>
<g><path style="opacity:1" fill="#2b241b" d="M 306.5,380.5 C 307.777,381.694 308.444,383.36 308.5,385.5C 308.167,387.167 307.833,388.833 307.5,390.5C 306.513,387.232 306.18,383.898 306.5,380.5 Z"/></g>
<g><path style="opacity:1" fill="#1d1915" d="M 290.5,384.5 C 291.909,387.178 291.743,389.844 290,392.5C 289.398,389.779 289.565,387.113 290.5,384.5 Z"/></g>
<g><path style="opacity:1" fill="#1f1b15" d="M 407.5,387.5 C 409.708,388.918 410.542,390.918 410,393.5C 408.681,391.713 407.848,389.713 407.5,387.5 Z"/></g>
<g><path style="opacity:1" fill="#13110d" d="M 386.5,387.5 C 388.846,390.386 389.68,393.72 389,397.5C 387.539,394.321 386.705,390.988 386.5,387.5 Z"/></g>
<g><path style="opacity:1" fill="#493926" d="M 352.5,389.5 C 353.5,389.5 354.5,389.5 355.5,389.5C 353.894,400.043 352.894,400.043 352.5,389.5 Z"/></g>
<g><path style="opacity:1" fill="#181410" d="M 364.5,386.5 C 365.895,388.847 365.728,391.181 364,393.5C 363.982,391.203 364.149,388.869 364.5,386.5 Z"/></g>
<g><path style="opacity:1" fill="#1e1a15" d="M 443.5,396.5 C 443.737,397.791 443.404,398.791 442.5,399.5C 441.746,396.977 441.08,394.311 440.5,391.5C 440.846,390.304 441.346,390.304 442,391.5C 442.608,393.154 443.108,394.821 443.5,396.5 Z"/></g>
<g><path style="opacity:1" fill="#272119" d="M 415.5,391.5 C 416.693,391.97 417.36,392.97 417.5,394.5C 417.167,395.5 416.833,396.5 416.5,397.5C 415.534,395.604 415.201,393.604 415.5,391.5 Z"/></g>
<g><path style="opacity:1" fill="#1e1a15" d="M 297.5,393.5 C 299.086,395.081 300.086,397.081 300.5,399.5C 299.726,400.711 298.893,400.711 298,399.5C 297.505,397.527 297.338,395.527 297.5,393.5 Z"/></g>
<g><path style="opacity:1" fill="#483b2a" d="M 371.5,391.5 C 372.586,391.62 373.253,392.287 373.5,393.5C 373.14,395.608 372.473,397.608 371.5,399.5C 370.386,396.844 370.386,394.177 371.5,391.5 Z"/></g>
<g><path style="opacity:1" fill="#3c3326" d="M 426.5,394.5 C 427.649,394.791 428.316,395.624 428.5,397C 428.167,397.833 427.833,398.667 427.5,399.5C 426.548,397.955 426.215,396.288 426.5,394.5 Z"/></g>
<g><path style="opacity:1" fill="#1c1914" d="M 281.5,405.5 C 281.011,404.005 280.345,402.671 279.5,401.5C 279.215,399.712 279.548,398.045 280.5,396.5C 282.32,399.52 282.653,402.52 281.5,405.5 Z"/></g>
<g><path style="opacity:1" fill="#16120d" d="M 394.5,393.5 C 397.082,395.997 398.582,398.997 399,402.5C 396.837,399.852 395.337,396.852 394.5,393.5 Z"/></g>
<g><path style="opacity:1" fill="#272119" d="M 377.5,395.5 C 379.978,397.483 380.145,399.816 378,402.5C 377.503,400.19 377.337,397.857 377.5,395.5 Z"/></g>
<g><path style="opacity:1" fill="#1d1a15" d="M 309.5,397.5 C 311.61,399.328 312.444,401.661 312,404.5C 310.477,402.431 309.643,400.097 309.5,397.5 Z"/></g>
<g><path style="opacity:1" fill="#8c6c43" d="M 444.5,385.5 C 445.98,393.143 445.48,400.81 443,408.5C 442.764,406.881 441.931,405.881 440.5,405.5C 441.167,403.5 441.833,401.5 442.5,399.5C 443.404,398.791 443.737,397.791 443.5,396.5C 444.482,393.038 444.815,389.371 444.5,385.5 Z"/></g>
<g><path style="opacity:1" fill="#4f3f2b" d="M 291.5,401.5 C 292.748,402.334 293.415,403.667 293.5,405.5C 293.167,406.833 292.833,408.167 292.5,409.5C 291.52,406.914 291.187,404.247 291.5,401.5 Z"/></g>
<g><path style="opacity:1" fill="#211c16" d="M 333.5,401.5 C 335.557,403.857 335.89,406.524 334.5,409.5C 333.52,406.914 333.187,404.247 333.5,401.5 Z"/></g>
<g><path style="opacity:1" fill="#41392e" d="M 421.5,397.5 C 423.026,398.492 423.693,399.992 423.5,402C 423.167,403.167 422.833,404.333 422.5,405.5C 421.52,402.914 421.187,400.247 421.5,397.5 Z"/></g>
<g><path style="opacity:1" fill="#251f17" d="M 435.5,396.5 C 437.954,399.556 437.954,402.889 435.5,406.5C 435.177,403.295 435.177,399.962 435.5,396.5 Z"/></g>
<g><path style="opacity:1" fill="#16130f" d="M 413.5,403.5 C 415.557,405.857 415.89,408.524 414.5,411.5C 413.52,408.914 413.187,406.247 413.5,403.5 Z"/></g>
<g><path style="opacity:1" fill="#3b3023" d="M 429.5,403.5 C 431.988,405.573 431.988,407.907 429.5,410.5C 428.286,408.141 428.286,405.808 429.5,403.5 Z"/></g>
<g><path style="opacity:1" fill="#f5f3c7" d="M 246.5,403.5 C 248.024,408.904 249.857,414.237 252,419.5C 252.186,417.1 252.686,414.766 253.5,412.5C 258.78,420.726 263.28,429.393 267,438.5C 267.333,433.167 267.667,427.833 268,422.5C 269.586,425.341 271.42,428.007 273.5,430.5C 274.59,429.609 274.59,428.609 273.5,427.5C 273.846,426.304 274.346,426.304 275,427.5C 278.567,433.736 282.9,439.403 288,444.5C 287.18,440.213 286.514,435.879 286,431.5C 294.331,445.662 306.498,454.662 322.5,458.5C 325.167,459.167 327.833,459.833 330.5,460.5C 330.34,458.801 330.506,457.134 331,455.5C 330.354,466.234 332.521,476.234 337.5,485.5C 340.383,494.269 345.05,501.936 351.5,508.5C 350.486,511.514 348.486,513.514 345.5,514.5C 339.075,514.13 332.742,514.63 326.5,516C 332.016,516.173 337.349,516.673 342.5,517.5C 323.29,525.731 303.123,529.398 282,528.5C 265.757,528.954 250.257,525.954 235.5,519.5C 235.611,518.883 235.944,518.383 236.5,518C 252.695,515.171 269.029,513.838 285.5,514C 265.816,510.918 246.149,510.751 226.5,513.5C 223.442,511.444 221.109,508.777 219.5,505.5C 231.032,490.761 238.532,474.094 242,455.5C 243.369,436.853 244.369,418.187 245,399.5C 245.791,400.745 246.291,402.078 246.5,403.5 Z"/></g>
<g><path style="opacity:1" fill="#3f362b" d="M 343.5,400.5 C 344.765,401.514 345.431,403.014 345.5,405C 345.167,406.5 344.833,408 344.5,409.5C 343.516,406.572 343.183,403.572 343.5,400.5 Z"/></g>
<g><path style="opacity:1" fill="#453c2f" d="M 357.5,403.5 C 358.748,404.334 359.415,405.667 359.5,407.5C 359.167,408.833 358.833,410.167 358.5,411.5C 357.52,408.914 357.187,406.247 357.5,403.5 Z"/></g>
<g><path style="opacity:1" fill="#4e3f2d" d="M 323.5,400.5 C 325.344,402.279 326.01,404.612 325.5,407.5C 324.5,407.5 323.5,407.5 322.5,407.5C 322.674,405.139 323.007,402.806 323.5,400.5 Z"/></g>
<g><path style="opacity:1" fill="#1d1915" d="M 392.5,405.5 C 393.586,405.62 394.253,406.287 394.5,407.5C 395.396,409.801 395.562,412.134 395,414.5C 393.451,411.688 392.618,408.688 392.5,405.5 Z"/></g>
<g><path style="opacity:1" fill="#a8a789" d="M 262.5,420.5 C 263.072,421.973 263.905,423.307 265,424.5C 265.167,423.667 265.333,422.833 265.5,422C 263.887,417.264 263.387,412.431 264,407.5C 266.158,411.81 268.825,415.81 272,419.5C 271.871,416.127 271.538,412.794 271,409.5C 272.752,412.672 274.752,415.672 277,418.5C 277.333,416.167 277.667,413.833 278,411.5C 280.632,416.814 283.299,422.147 286,427.5C 295.909,440.582 308.075,450.915 322.5,458.5C 306.498,454.662 294.331,445.662 286,431.5C 286.514,435.879 287.18,440.213 288,444.5C 282.9,439.403 278.567,433.736 275,427.5C 274.346,426.304 273.846,426.304 273.5,427.5C 274.59,428.609 274.59,429.609 273.5,430.5C 271.42,428.007 269.586,425.341 268,422.5C 267.667,427.833 267.333,433.167 267,438.5C 263.28,429.393 258.78,420.726 253.5,412.5C 252.686,414.766 252.186,417.1 252,419.5C 249.857,414.237 248.024,408.904 246.5,403.5C 247.232,404.808 248.066,406.142 249,407.5C 249.333,403.5 249.667,399.5 250,395.5C 253.329,404.367 257.496,412.7 262.5,420.5 Z"/></g>
<g><path style="opacity:1" fill="#231f19" d="M 381.5,409.5 C 382.803,412.355 382.803,415.355 381.5,418.5C 380.357,415.502 380.357,412.502 381.5,409.5 Z"/></g>
<g><path style="opacity:1" fill="#1c1711" d="M 421.5,414.5 C 421.737,415.791 421.404,416.791 420.5,417.5C 420.322,416.305 419.989,415.138 419.5,414C 420.487,412.128 421.154,412.295 421.5,414.5 Z"/></g>
<g><path style="opacity:1" fill="#97774c" d="M 440.5,405.5 C 440.665,409.182 440.499,412.848 440,416.5C 439.692,417.308 439.192,417.975 438.5,418.5C 436.35,410.791 435.35,410.791 435.5,418.5C 430.181,419.496 424.847,420.496 419.5,421.5C 417.886,421.197 416.552,420.53 415.5,419.5C 416.053,415.544 416.886,415.544 418,419.5C 418.995,418.934 419.828,418.267 420.5,417.5C 421.404,416.791 421.737,415.791 421.5,414.5C 422.158,415.398 422.824,416.398 423.5,417.5C 424.183,417.137 424.85,416.804 425.5,416.5C 426.623,417.757 427.289,417.424 427.5,415.5C 433,413.664 437.334,410.331 440.5,405.5 Z"/></g>
<g><path style="opacity:1" fill="#785d3b" d="M 305.5,411.5 C 304.402,412.601 304.235,413.934 305,415.5C 305.417,416.756 306.25,417.423 307.5,417.5C 306.432,418.434 305.099,418.768 303.5,418.5C 302.833,416.181 302.666,413.847 303,411.5C 303.977,410.226 304.811,410.226 305.5,411.5 Z"/></g>
<g><path style="opacity:1" fill="#15130f" d="M 305.5,411.5 C 305.971,413.579 306.637,415.579 307.5,417.5C 306.25,417.423 305.417,416.756 305,415.5C 304.235,413.934 304.402,412.601 305.5,411.5 Z"/></g>
<g><path style="opacity:1" fill="#68543a" d="M 365.5,408.5 C 367.693,410.522 368.693,413.189 368.5,416.5C 367.167,416.5 365.833,416.5 364.5,416.5C 364.279,413.721 364.612,411.054 365.5,408.5 Z"/></g>
<g><path style="opacity:1" fill="#201a11" d="M 315.5,415.5 C 316.793,417.364 316.793,419.364 315.5,421.5C 314.481,419.54 314.481,417.54 315.5,415.5 Z"/></g>
<g><path style="opacity:1" fill="#2a231a" d="M 427.5,415.5 C 427.289,417.424 426.623,417.757 425.5,416.5C 425.281,415.325 425.614,414.325 426.5,413.5C 427.298,413.957 427.631,414.624 427.5,415.5 Z"/></g>
<g><path style="opacity:1" fill="#1f1b16" d="M 350.5,415.5 C 353.318,417.581 353.985,420.248 352.5,423.5C 351.451,420.92 350.784,418.254 350.5,415.5 Z"/></g>
<g><path style="opacity:1" fill="#917147" d="M 277.5,399.5 C 278.167,400.167 278.833,400.833 279.5,401.5C 280.345,402.671 281.011,404.005 281.5,405.5C 281.062,405.435 280.728,405.601 280.5,406C 282.207,409.248 284.04,412.415 286,415.5C 287.309,417.891 288.309,417.891 289,415.5C 290.743,420.91 294.243,424.744 299.5,427C 305.134,427.869 310.8,428.369 316.5,428.5C 331.764,426.764 347.097,426.098 362.5,426.5C 362.5,425.5 362.5,424.5 362.5,423.5C 364.942,423.119 365.609,423.786 364.5,425.5C 367.768,426.487 371.102,426.82 374.5,426.5C 375.167,422.5 375.833,422.5 376.5,426.5C 379.579,426.74 382.579,426.407 385.5,425.5C 386.168,422.694 386.834,420.028 387.5,417.5C 387.26,420.579 387.593,423.579 388.5,426.5C 386.833,426.833 385.167,427.167 383.5,427.5C 360.204,429.135 336.87,429.969 313.5,430C 309.267,430.933 305.1,432.1 301,433.5C 287.006,426.539 279.173,415.205 277.5,399.5 Z"/></g>
<g><path style="opacity:1" fill="#1e1a15" d="M 338.5,418.5 C 339.586,418.62 340.253,419.287 340.5,420.5C 340.167,421.167 339.833,421.833 339.5,422.5C 338.571,421.311 338.238,419.978 338.5,418.5 Z"/></g>
<g><path style="opacity:1" fill="#dbc19b" d="M 441.5,427.5 C 429.782,429.231 418.115,431.398 406.5,434C 395.628,438.719 384.295,441.219 372.5,441.5C 349.418,440.09 326.418,437.923 303.5,435C 307.123,433.844 310.789,432.844 314.5,432C 344.346,432.644 374.012,430.811 403.5,426.5C 415.337,423.431 427.337,421.598 439.5,421C 443.597,422.438 444.264,424.604 441.5,427.5 Z"/></g>
<g><path style="opacity:1" fill="#846742" d="M 405.5,421.5 C 406.404,422.209 406.737,423.209 406.5,424.5C 404.901,424.232 403.568,424.566 402.5,425.5C 399.31,425.559 396.143,425.893 393,426.5C 391.319,426.392 390.152,425.725 389.5,424.5C 392.5,424.5 395.5,424.5 398.5,424.5C 398.231,422.571 398.731,420.905 400,419.5C 400.684,420.784 400.517,421.951 399.5,423C 401.881,423.738 403.881,423.238 405.5,421.5 Z"/></g>
<g><path style="opacity:1" fill="#483a2a" d="M 325.5,422.5 C 329.079,422.766 329.413,424.099 326.5,426.5C 325.571,425.311 325.238,423.978 325.5,422.5 Z"/></g>
<g><path style="opacity:1" fill="#a88758" d="M 433.5,442.5 C 433.38,441.414 432.713,440.747 431.5,440.5C 421.99,443.569 412.324,446.069 402.5,448C 404.81,448.497 407.143,448.663 409.5,448.5C 404.177,449.166 398.677,449.499 393,449.5C 371.51,448.432 350.01,447.599 328.5,447C 319.889,444.796 311.555,441.796 303.5,438C 308.519,438.553 313.519,439.553 318.5,441C 339.499,442.096 360.499,442.762 381.5,443C 399.707,440.273 417.54,436.107 435,430.5C 437.89,430.555 439.056,432.055 438.5,435C 438.61,438.717 436.943,441.217 433.5,442.5 Z"/></g>
<g><path style="opacity:1" fill="#dac09b" d="M 433.5,442.5 C 426.004,446.374 418.004,448.374 409.5,448.5C 407.143,448.663 404.81,448.497 402.5,448C 412.324,446.069 421.99,443.569 431.5,440.5C 432.713,440.747 433.38,441.414 433.5,442.5 Z"/></g>
<g><path style="opacity:1" fill="#df0f31" d="M 220.5,495.5 C 221.552,495.351 222.552,495.517 223.5,496C 219.351,498.807 217.184,502.64 217,507.5C 220.867,511.702 225.033,515.535 229.5,519C 237.54,522.791 245.873,525.791 254.5,528C 282.234,532.296 309.567,530.629 336.5,523C 343.877,519.913 349.71,515.08 354,508.5C 354.781,507.056 354.614,505.723 353.5,504.5C 350.804,503.149 348.47,501.316 346.5,499C 346.728,498.601 347.062,498.435 347.5,498.5C 354.055,500.887 358.889,505.221 362,511.5C 361.905,516.099 360.071,519.932 356.5,523C 321.916,542.462 285.249,547.462 246.5,538C 233.691,533.172 221.858,526.672 211,518.5C 209.75,515.923 209.416,513.257 210,510.5C 213.99,505.858 217.49,500.858 220.5,495.5 Z"/></g>
<g><path style="opacity:1" fill="#1e0a05" d="M 218.5,495.5 C 219.167,495.5 219.833,495.5 220.5,495.5C 217.49,500.858 213.99,505.858 210,510.5C 209.416,513.257 209.75,515.923 211,518.5C 221.858,526.672 233.691,533.172 246.5,538C 285.249,547.462 321.916,542.462 356.5,523C 360.071,519.932 361.905,516.099 362,511.5C 358.889,505.221 354.055,500.887 347.5,498.5C 347.5,497.833 347.833,497.5 348.5,497.5C 351.262,498.38 353.929,499.546 356.5,501C 359.885,504.717 362.885,508.717 365.5,513C 380.984,517.939 396.317,523.272 411.5,529C 418.741,535.308 423.574,543.141 426,552.5C 432.237,578.259 437.071,604.259 440.5,630.5C 439.833,630.5 439.167,630.5 438.5,630.5C 435.234,602.094 429.734,574.094 422,546.5C 419.609,540.38 415.776,535.38 410.5,531.5C 410.167,531.833 409.833,532.167 409.5,532.5C 410.833,533.62 411.333,534.953 411,536.5C 408.842,533.298 406.342,530.465 403.5,528C 391.092,522.958 378.425,518.791 365.5,515.5C 363.181,516.793 361.848,518.793 361.5,521.5C 359.66,523.168 357.66,524.668 355.5,526C 346.62,529.941 337.954,534.108 329.5,538.5C 299.027,546.903 268.694,546.403 238.5,537C 230.181,533.175 222.181,528.842 214.5,524C 209.674,520.858 207.007,516.358 206.5,510.5C 187.944,517.944 169.277,525.111 150.5,532C 146.656,534.422 142.99,537.089 139.5,540C 145.369,547.571 150.869,555.404 156,563.5C 161.267,572.7 165.933,582.033 170,591.5C 161.502,576.499 152.502,561.833 143,547.5C 141.471,546.271 140.304,544.771 139.5,543C 138.5,542.333 137.5,542.333 136.5,543C 128.454,554.251 121.287,566.085 115,578.5C 108.567,595.574 103.067,612.908 98.5,630.5C 97.8333,630.5 97.1667,630.5 96.5,630.5C 102.936,599.005 115.103,570.005 133,543.5C 138.569,537.934 144.735,533.101 151.5,529C 171.145,522.452 190.478,515.119 209.5,507C 213.447,503.889 216.447,500.055 218.5,495.5 Z"/></g>
<g><path style="opacity:1" fill="#aead8d" d="M 345.5,514.5 C 344.833,515.833 343.833,516.833 342.5,517.5C 337.349,516.673 332.016,516.173 326.5,516C 332.742,514.63 339.075,514.13 345.5,514.5 Z"/></g>
<g><path style="opacity:1" fill="#b3b191" d="M 235.5,519.5 C 233.86,518.68 232.193,517.847 230.5,517C 233.032,516.381 235.365,515.381 237.5,514C 234.629,513.922 231.795,514.422 229,515.5C 227.699,515.361 226.866,514.695 226.5,513.5C 246.149,510.751 265.816,510.918 285.5,514C 269.029,513.838 252.695,515.171 236.5,518C 235.944,518.383 235.611,518.883 235.5,519.5 Z"/></g>
<g><path style="opacity:1" fill="#e50f32" d="M 329.5,538.5 C 336.667,537.42 343.334,534.92 349.5,531C 352.339,529.08 355.339,527.413 358.5,526C 360.141,524.871 361.141,523.371 361.5,521.5C 361.848,518.793 363.181,516.793 365.5,515.5C 378.425,518.791 391.092,522.958 403.5,528C 406.342,530.465 408.842,533.298 411,536.5C 411.333,534.953 410.833,533.62 409.5,532.5C 409.833,532.167 410.167,531.833 410.5,531.5C 415.776,535.38 419.609,540.38 422,546.5C 429.734,574.094 435.234,602.094 438.5,630.5C 430.833,630.5 423.167,630.5 415.5,630.5C 414.829,616.846 414.329,603.179 414,589.5C 413.768,588.263 413.268,587.263 412.5,586.5C 412.5,581.167 412.5,575.833 412.5,570.5C 413.821,562.324 413.821,553.991 412.5,545.5C 411.503,553.138 411.169,560.804 411.5,568.5C 410.985,581.561 409.985,594.561 408.5,607.5C 406.439,603.525 404.273,599.525 402,595.5C 401.339,600.558 401.672,605.558 403,610.5C 405.479,617.09 407.646,623.757 409.5,630.5C 338.167,630.5 266.833,630.5 195.5,630.5C 190.425,622.022 185.592,613.355 181,604.5C 180.292,603.619 179.458,602.953 178.5,602.5C 178.5,601.833 178.167,601.5 177.5,601.5C 176.427,598.169 175.427,598.002 174.5,601C 176.821,610.732 178.821,620.565 180.5,630.5C 171.833,630.5 163.167,630.5 154.5,630.5C 154.529,624.79 154.029,619.123 153,613.5C 152.581,612.328 151.915,611.328 151,610.5C 150.067,617.421 150.901,624.088 153.5,630.5C 147.833,630.5 142.167,630.5 136.5,630.5C 131.229,616.518 126.062,602.518 121,588.5C 120.308,589.025 119.808,589.692 119.5,590.5C 120.703,604.239 123.703,617.572 128.5,630.5C 118.5,630.5 108.5,630.5 98.5,630.5C 103.067,612.908 108.567,595.574 115,578.5C 121.287,566.085 128.454,554.251 136.5,543C 137.5,542.333 138.5,542.333 139.5,543C 140.304,544.771 141.471,546.271 143,547.5C 152.502,561.833 161.502,576.499 170,591.5C 165.933,582.033 161.267,572.7 156,563.5C 150.869,555.404 145.369,547.571 139.5,540C 142.99,537.089 146.656,534.422 150.5,532C 169.277,525.111 187.944,517.944 206.5,510.5C 207.007,516.358 209.674,520.858 214.5,524C 222.181,528.842 230.181,533.175 238.5,537C 268.694,546.403 299.027,546.903 329.5,538.5 Z"/></g>
<g><path style="opacity:1" fill="#8b091f" d="M 361.5,521.5 C 361.141,523.371 360.141,524.871 358.5,526C 355.339,527.413 352.339,529.08 349.5,531C 343.334,534.92 336.667,537.42 329.5,538.5C 337.954,534.108 346.62,529.941 355.5,526C 357.66,524.668 359.66,523.168 361.5,521.5 Z"/></g>
<g><path style="opacity:1" fill="#600e17" d="M 412.5,570.5 C 412.672,569.508 412.338,568.842 411.5,568.5C 411.169,560.804 411.503,553.138 412.5,545.5C 413.821,553.991 413.821,562.324 412.5,570.5 Z"/></g>
<g><path style="opacity:1" fill="#edecec" d="M 388.5,583.5 C 389.833,584.167 390.833,585.167 391.5,586.5C 391.322,589.216 390.822,591.883 390,594.5C 389.329,595.252 388.496,595.586 387.5,595.5C 386.739,594.609 385.739,593.942 384.5,593.5C 383.959,589.507 382.292,586.173 379.5,583.5C 382.498,582.357 385.498,582.357 388.5,583.5 Z"/></g>
<g><path style="opacity:1" fill="#281717" d="M 371.5,584.5 C 369.983,584.511 368.816,585.177 368,586.5C 367.495,588.518 366.995,590.518 366.5,592.5C 366.5,593.167 366.167,593.5 365.5,593.5C 364.62,588.978 366.12,585.645 370,583.5C 370.765,583.57 371.265,583.903 371.5,584.5 Z"/></g>
<g><path style="opacity:1" fill="#980a22" d="M 136.5,630.5 C 133.833,630.5 131.167,630.5 128.5,630.5C 123.703,617.572 120.703,604.239 119.5,590.5C 119.808,589.692 120.308,589.025 121,588.5C 126.062,602.518 131.229,616.518 136.5,630.5 Z"/></g>
<g><path style="opacity:1" fill="#f5f2f3" d="M 375.5,586.5 C 376.66,588.203 375.993,588.869 373.5,588.5C 373.408,592.071 375.074,593.238 378.5,592C 381.061,589.844 381.061,587.677 378.5,585.5C 379.496,585.414 380.329,585.748 381,586.5C 381.011,589.659 381.845,592.493 383.5,595C 380.466,596.191 378.799,598.358 378.5,601.5C 373.797,601.563 369.13,601.229 364.5,600.5C 364.783,599.711 365.283,599.044 366,598.5C 368.988,599.744 371.155,598.744 372.5,595.5C 370.423,592.881 368.257,592.881 366,595.5C 365.536,594.906 365.369,594.239 365.5,593.5C 366.167,593.5 366.5,593.167 366.5,592.5C 368.247,592.407 370.081,592.074 372,591.5C 372.495,589.527 372.662,587.527 372.5,585.5C 373.791,585.263 374.791,585.596 375.5,586.5 Z"/></g>
<g><path style="opacity:1" fill="#950a21" d="M 412.5,586.5 C 413.268,587.263 413.768,588.263 414,589.5C 414.329,603.179 414.829,616.846 415.5,630.5C 414.833,630.5 414.167,630.5 413.5,630.5C 412.957,623.997 411.624,617.664 409.5,611.5C 411.593,603.329 412.593,594.996 412.5,586.5 Z"/></g>
<g><path style="opacity:1" fill="#200606" d="M 411.5,568.5 C 412.338,568.842 412.672,569.508 412.5,570.5C 412.5,575.833 412.5,581.167 412.5,586.5C 412.593,594.996 411.593,603.329 409.5,611.5C 411.624,617.664 412.957,623.997 413.5,630.5C 412.5,630.5 411.5,630.5 410.5,630.5C 409.833,622.833 409.167,615.167 408.5,607.5C 409.985,594.561 410.985,581.561 411.5,568.5 Z"/></g>
<g><path style="opacity:1" fill="#433839" d="M 365.5,593.5 C 365.369,594.239 365.536,594.906 366,595.5C 368.257,592.881 370.423,592.881 372.5,595.5C 371.155,598.744 368.988,599.744 366,598.5C 365.283,599.044 364.783,599.711 364.5,600.5C 363.833,600.833 363.167,601.167 362.5,601.5C 362.511,599.983 363.177,598.816 364.5,598C 363.084,596.085 363.418,594.585 365.5,593.5 Z"/></g>
<g><path style="opacity:1" fill="#920920" d="M 408.5,607.5 C 409.167,615.167 409.833,622.833 410.5,630.5C 410.167,630.5 409.833,630.5 409.5,630.5C 407.646,623.757 405.479,617.09 403,610.5C 401.672,605.558 401.339,600.558 402,595.5C 404.273,599.525 406.439,603.525 408.5,607.5 Z"/></g>
<g><path style="opacity:1" fill="#d2cfcf" d="M 385.5,598.5 C 386.981,605.425 384.314,608.925 377.5,609C 376.944,609.383 376.611,609.883 376.5,610.5C 373.257,611.58 369.924,611.747 366.5,611C 365.244,610.583 364.577,609.75 364.5,608.5C 364.369,607.624 364.702,606.957 365.5,606.5C 368.773,607.585 372.106,607.752 375.5,607C 377.699,605.303 380.032,603.803 382.5,602.5C 383.191,600.199 384.191,598.866 385.5,598.5 Z"/></g>
<g><path style="opacity:1" fill="#706163" d="M 388.5,583.5 C 385.498,582.357 382.498,582.357 379.5,583.5C 382.292,586.173 383.959,589.507 384.5,593.5C 385.739,593.942 386.739,594.609 387.5,595.5C 387.068,596.71 386.401,597.71 385.5,598.5C 384.191,598.866 383.191,600.199 382.5,602.5C 380.032,603.803 377.699,605.303 375.5,607C 372.106,607.752 368.773,607.585 365.5,606.5C 364.702,606.957 364.369,607.624 364.5,608.5C 361.782,606.618 361.115,604.285 362.5,601.5C 363.167,601.167 363.833,600.833 364.5,600.5C 369.13,601.229 373.797,601.563 378.5,601.5C 378.799,598.358 380.466,596.191 383.5,595C 381.845,592.493 381.011,589.659 381,586.5C 380.329,585.748 379.496,585.414 378.5,585.5C 377.391,585.557 376.391,585.89 375.5,586.5C 374.791,585.596 373.791,585.263 372.5,585.5C 372.662,587.527 372.495,589.527 372,591.5C 370.081,592.074 368.247,592.407 366.5,592.5C 366.995,590.518 367.495,588.518 368,586.5C 368.816,585.177 369.983,584.511 371.5,584.5C 375.163,583.1 378.996,582.1 383,581.5C 384.5,581.667 386,581.833 387.5,582C 388.056,582.383 388.389,582.883 388.5,583.5 Z"/></g>
<g><path style="opacity:1" fill="#f3f1f1" d="M 382.5,596.5 C 383.096,597.935 383.096,599.602 382.5,601.5C 381.325,601.719 380.325,601.386 379.5,600.5C 380.524,599.148 381.524,597.815 382.5,596.5 Z"/></g>
<g><path style="opacity:1" fill="#1e1819" d="M 378.5,585.5 C 381.061,587.677 381.061,589.844 378.5,592C 375.074,593.238 373.408,592.071 373.5,588.5C 375.993,588.869 376.66,588.203 375.5,586.5C 376.391,585.89 377.391,585.557 378.5,585.5 Z"/></g>
<g><path style="opacity:1" fill="#900a20" d="M 177.5,601.5 C 176.957,601.56 176.624,601.893 176.5,602.5C 181.357,611.41 185.023,620.743 187.5,630.5C 185.167,630.5 182.833,630.5 180.5,630.5C 178.821,620.565 176.821,610.732 174.5,601C 175.427,598.002 176.427,598.169 177.5,601.5 Z"/></g>
<g><path style="opacity:1" fill="#231819" d="M 391.5,586.5 C 393.147,591.723 391.647,596.057 387,599.5C 386.794,602.623 386.127,605.623 385,608.5C 382.222,609.325 379.389,609.992 376.5,610.5C 376.611,609.883 376.944,609.383 377.5,609C 384.314,608.925 386.981,605.425 385.5,598.5C 386.401,597.71 387.068,596.71 387.5,595.5C 388.496,595.586 389.329,595.252 390,594.5C 390.822,591.883 391.322,589.216 391.5,586.5 Z"/></g>
<g><path style="opacity:1" fill="#900a20" d="M 178.5,602.5 C 179.458,602.953 180.292,603.619 181,604.5C 185.592,613.355 190.425,622.022 195.5,630.5C 193.5,630.5 191.5,630.5 189.5,630.5C 186.225,621.009 182.559,611.675 178.5,602.5 Z"/></g>
<g><path style="opacity:1" fill="#9b0a22" d="M 154.5,630.5 C 154.167,630.5 153.833,630.5 153.5,630.5C 150.901,624.088 150.067,617.421 151,610.5C 151.915,611.328 152.581,612.328 153,613.5C 154.029,619.123 154.529,624.79 154.5,630.5 Z"/></g>
<g><path style="opacity:0.004" fill="#000000" d="M -0.5,613.5 C 2.83333,621.5 8.5,627.167 16.5,630.5C 10.8333,630.5 5.16667,630.5 -0.5,630.5C -0.5,624.833 -0.5,619.167 -0.5,613.5 Z"/></g>
<g><path style="opacity:1" fill="#1b0405" d="M 177.5,601.5 C 178.167,601.5 178.5,601.833 178.5,602.5C 182.559,611.675 186.225,621.009 189.5,630.5C 188.833,630.5 188.167,630.5 187.5,630.5C 185.023,620.743 181.357,611.41 176.5,602.5C 176.624,601.893 176.957,601.56 177.5,601.5 Z"/></g>
<g><path style="opacity:0.004" fill="#000000" d="M 630.5,613.5 C 630.5,619.167 630.5,624.833 630.5,630.5C 624.833,630.5 619.167,630.5 613.5,630.5C 621.5,627.167 627.167,621.5 630.5,613.5 Z"/></g>
</svg>
